<svg xmlns="http://www.w3.org/2000/svg" width="512" height="512" viewBox="0 0 512 512"><path d="M256 0C144.1 0 53.1 91 53.1 202.9c0 63.5 29.3 120.2 75.1 157.5l-10.8 19.8c-2 3.6-.6 8.2 3 10.1 3.6 2 8.2.6 10.1-3l9.7-17.8c23.2 16.1 49.8 27.6 78.6 32.9L168 496.1l-22.8-33.4c-2.5-3.7-6.7-6-11.1-6.1l-40.5-1 20.5-37.6c2-3.6.6-8.2-3-10.1-3.6-2-8.2-.6-10.1 3L79.5 450c-2.3 4.3-2.3 9.4.2 13.6 2.4 4.2 6.8 6.8 11.7 6.9l41.7 1 23.5 34.4c2.6 3.8 6.9 6.1 11.5 6.1h.7c4.9-.2 9.2-3 11.5-7.2l54.4-100.1c7 .7 14.1 1.1 21.3 1.1 7.2 0 14.3-.4 21.3-1.1l54.4 100.1c2.3 4.3 6.6 7 11.5 7.2h.7c4.6 0 8.8-2.2 11.5-6.1l23.5-34.4 41.7-1c4.9-.1 9.3-2.7 11.7-6.9a14 14 0 0 0 .2-13.6l-48.6-89.5c28.1-22.8 49.5-52.5 62.3-86.5 1.4-3.9-.5-8.2-4.4-9.6-3.9-1.4-8.2.5-9.6 4.4-13.3 35.5-36.7 65.8-67.8 87.8C332.5 379 295 390.8 256 390.8c-103.6 0-187.9-84.3-187.9-187.9S152.4 15 256 15s187.9 84.3 187.9 187.9c0 11.2-1 22.4-3 33.4-.7 4.1 2 8 6 8.7 4.1.7 8-2 8.7-6 2.1-11.8 3.2-23.9 3.2-36C458.9 91 367.9 0 256 0zm115.7 369.6l46.8 86-40.5 1c-4.5.1-8.6 2.4-11.1 6.1L344 496.1l-50.9-93.7c28.2-5.2 54.8-16.3 78.6-32.8z"/><path d="M256 41.6c-88.9 0-161.3 72.3-161.3 161.3 0 88.9 72.3 161.3 161.3 161.3s161.3-72.3 161.3-161.3c0-88.9-72.4-161.3-161.3-161.3zm0 307.6c-80.7 0-146.3-65.6-146.3-146.3S175.3 56.6 256 56.6c80.7 0 146.3 65.6 146.3 146.3S336.7 349.2 256 349.2z"/></svg>