<svg xmlns="http://www.w3.org/2000/svg" width="512" height="512" viewBox="0 0 512 512"><path d="M451.911 7.947l-5.75-5.75a7.504 7.504 0 0 0-7.543-1.855C396 13.678 366.609 43.323 349.457 65.844a232.022 232.022 0 0 0-16.622 25.087c-13.815-2.9-28.154-3.255-42.265-.856-18.745 3.188-31.88 19.856-31.174 38.384-8.266 4.371-15.9 10.063-22.73 17.008-13.531 13.757-24.986 40.033-26.08 59.823-1.538 27.844-15.602 171.267-141.75 260.616-10.49 7.43-13.831 20.117-8.313 31.57C64.934 506.632 73.78 512 83.472 512c2.489 0 5.035-.355 7.574-1.09 91.67-26.532 157.684-80.097 196.92-120.36 49.08-50.366 84.697-109.137 97.719-161.244 5.409-21.652 2.531-44.404-8.104-64.065-12.601-23.297-34.706-39.672-60.648-44.927-14.237-2.884-28.562-2.249-42.019 1.772 1.96-8.619 8.929-15.651 18.169-17.223 27.275-4.638 55.56 2.556 77.603 19.733 4.932 3.843 7.975 9.388 8.569 15.615a7.5 7.5 0 1 0 14.932-1.426c-.977-10.226-6.182-19.711-14.282-26.022a115.052 115.052 0 0 0-32.187-17.644c15.681-26.226 45.368-63.104 91.104-79.046l2.482 2.483a7.501 7.501 0 0 0 10.607-10.609zM299.096 133.491c4.884.001 9.843.508 14.859 1.524 21.572 4.37 39.954 17.988 50.434 37.362 8.849 16.357 11.243 35.283 6.744 53.291-12.396 49.609-46.625 105.89-93.909 154.412-37.975 38.97-101.824 90.8-190.348 116.421-6.586 1.905-11.036-1.789-12.841-5.537-1.799-3.734-1.832-9.062 3.47-12.817 131.771-93.33 146.452-242.978 148.058-272.029.887-16.064 10.869-39.022 21.796-50.132 6.871-6.987 14.663-12.471 23.157-16.302 9.149-4.124 18.715-6.193 28.58-6.193z"/></svg>