<svg xmlns="http://www.w3.org/2000/svg" width="512" height="512" viewBox="0 0 60 60"><path d="M58.07 23.61a1 1 0 0 0-1.48-.43 25.6 25.6 0 0 1-10.94 4.69c-5.37.87-10.15 1.91-14.29 5.83A14.35 14.35 0 0 0 28.8 37a18 18 0 0 0-3.55-4.78c-3.63-3.37-7.83-4.27-12.54-5a22.44 22.44 0 0 1-9.53-4 1 1 0 0 0-1.48.43c-4.73 11 .57 26.26 13.07 30.15a23.91 23.91 0 0 0 12.47.2 1 1 0 0 0 .76-1c0-6.38.6-10.4 1.67-13.2l.06-.14a12 12 0 0 1 3-4.51c3.71-3.53 8.18-4.49 13.22-5.31a26.9 26.9 0 0 0 10.7-4.31C61.37 38.89 53.75 59.24 32 58a45 45 0 0 1 15-17 1 1 0 1 0-1.14-1.64c-12.26 8.4-16.11 18.7-16.27 19.13a1 1 0 0 0 .84 1.34c4.306.456 8.66.02 12.79-1.28 14.14-4.5 20.24-22.13 14.85-34.94zM26 50.09C24.47 47.6 20.51 42.36 12.58 37a1.001 1.001 0 0 0-1.12 1.66c9.76 6.64 13.28 13.13 13.61 13.75C7.51 55.32-1.29 38 3.1 25.51a23.56 23.56 0 0 0 9.29 3.64c4.54.72 8.28 1.52 11.49 4.51a16.33 16.33 0 0 1 3.82 5.72A34.64 34.64 0 0 0 26 50.09z"/><path d="M29.29 30.7a1 1 0 0 0 1.42 0l13.38-13.53C50.29 10.91 46 0 37 0a9.82 9.82 0 0 0-7 3 9.87 9.87 0 0 0-14.08 0 10.12 10.12 0 0 0 0 14.22zM17.34 4.36a7.89 7.89 0 0 1 11.25 0l.7.7a1 1 0 0 0 1.42 0l.71-.71A8 8 0 0 1 45 10.06a8.06 8.06 0 0 1-2.33 5.7L30 28.58 17.34 15.76a8.11 8.11 0 0 1 0-11.4z"/><path d="M19 14.1a1 1 0 0 0 .8-1.59 4.13 4.13 0 0 1 .38-5.33 1 1 0 1 0-1.42-1.41 6.14 6.14 0 0 0-.56 7.93 1 1 0 0 0 .8.4zM23 6c.27 0 .538.03.8.09a1.022 1.022 0 0 0 .42-2A6.78 6.78 0 0 0 23 4a1 1 0 0 0 0 2z"/></svg>