<svg xmlns="http://www.w3.org/2000/svg" id="Capa_1" width="310" height="343" viewBox="0 0 310 343"><style>.st0{opacity:.31}.st1{fill:#fff}</style><g class="st0"><path d="M103.7 42.8c-1.1-6.3-3.2-12.3-6.2-17.9-3-5.6-6.9-10.7-11.4-15.1-.8-.8-1.9-1.2-3-1.2s-2.2.5-3 1.3c-1 1.1-1.4 2.5-1.1 3.8l-2.6 3.5-1.2 1.6-11.5 15.5-1.3 1.7-6 8.2c-.7.9-.8 2-.3 2.9.5 1 1.5 1.5 2.6 1.4l13.5-.7c.4 0 .7-.3.6-.7 0-.4-.3-.7-.7-.6l-13.5.7c-.6 0-1.1-.2-1.3-.7-.3-.5-.2-1.1.1-1.5l1.9-2.6c.7 1.1 1.8 2 3.1 2.4 2.9.9 6-.8 6.8-3.7s-.8-6-3.7-6.8c-.1 0-.1 0-.2-.1l6.4-8.7c.7 1 1.7 1.8 3 2.2 2.9.9 6-.8 6.8-3.7.9-2.9-.8-5.9-3.6-6.8l1.5-2.1c1.6 1.9 3.5 3.5 5 5.5.2.3.7.3.9.1s.3-.7.1-.9c-1.4-1.7-2.9-3.3-4.5-4.9-1.2-1.1-1.2-2.9-.1-4.1.5-.6 1.3-.9 2-.9.8 0 1.5.3 2.1.8 4.5 4.3 8.3 9.3 11.2 14.8 2.9 5.5 5 11.4 6.1 17.5.3 1.6-.8 3.1-2.3 3.4-1.6.3-3.1-.8-3.4-2.3-1.4-7.9-4.5-15.3-9.2-21.7-.2-.3-.6-.4-.9-.2-.3.2-.4.6-.2.9 4.9 6.6 7.6 14.2 9.3 22.2l-20.4 1.1c-.4 0-.7.3-.6.7 0 .4.3.7.7.6l21.3-1.1c1 .9 2.3 1.3 3.6 1.1 2.5-.4 4-2.6 3.6-4.9zm-38.4-7.2c2.2.7 3.4 3 2.8 5.2-.7 2.2-3 3.4-5.2 2.8-1.2-.4-2.1-1.2-2.6-2.3l3.2-4.3 1.1-1.5c.2 0 .5 0 .7.1zm12.3-17.1c2.2.7 3.4 3 2.8 5.2s-3 3.4-5.2 2.8c-1.1-.3-2-1.1-2.5-2l3.2-4.3 1.3-1.7c.1-.1.3 0 .4 0z" class="st1"/><path d="M75.9 37.2c-.3-.1-.7.1-.8.4-1 2.9.7 6.1 3.6 7 2.9.9 6-.8 6.8-3.7s-.8-6-3.7-6.8c-1.6-.5-3.3-.2-4.6.7-.3.2-.4.6-.2.9.2.3.6.4.9.2 1-.7 2.3-.9 3.5-.5 2.2.7 3.4 3 2.8 5.2-.7 2.2-3 3.4-5.2 2.8-2.2-.7-3.5-3.1-2.7-5.3.1-.4 0-.8-.4-.9zm6.1-5.6h.2c.1 0 2.6 0 3.8-1.6 1.2-1.6.4-4 .4-4.1-.1-.3-.3-.5-.6-.5-.1 0-2.6 0-3.8 1.6-1.2 1.6-.4 4-.4 4.1.1.3.2.4.4.5zm1.1-3.8c.5-.7 1.5-.9 2.2-1 .1.7.2 1.8-.3 2.4-.5.7-1.5.9-2.2 1-.2-.6-.2-1.7.3-2.4zm6.4 7.7c.3.2.7.2.9-.1.2-.3.2-.7-.1-.9-.9-.7-1.9-1-2-1-.3-.1-.6 0-.7.3-.1.1-1.4 2.2-.6 4 .7 1.7 2.8 2.4 3.2 2.5.3.1.6 0 .7-.3 0 0 .6-.9.8-2 .1-.4-.2-.7-.5-.8-.4-.1-.7.2-.8.5-.1.4-.2.8-.4 1.1-.6-.3-1.5-.8-1.8-1.6-.3-.7 0-1.7.3-2.3.3.2.7.4 1 .6zm-16.9-5.9c-.2-.2-.6-.1-.8.1-.1.1-1.9 1.7-1.8 3.6.2 1.9 2.3 3.3 2.3 3.4.2.2.6.1.8-.1.1-.1 1.9-1.7 1.8-3.6-.1-2-2.2-3.3-2.3-3.4zm0 5.6c-.5-.4-1.2-1.2-1.3-2-.1-.8.5-1.6.9-2.1.5.4 1.2 1.2 1.3 2 .1.8-.4 1.6-.9 2.1zm85.6-14.6c.3-.1.5-.3.6-.6 0-.3-.1-.6-.3-.7-.3-.1-.6-.1-.8.1-.2.2-.3.5-.2.8 0 .3.3.5.7.4z" class="st1"/><path d="M161.3 19.4c-.4-.1-.7.2-.8.6-.1.4.2.7.6.8 4.5.6 8.5 2.6 11.8 5.7l-1.3 2.5c-1.6-1.2-3.3-2.3-5-3-1.7-.8-3.4-1.4-5.1-1.7-5.7-1.1-11.4.5-17.1 4.8l-1.3-2.5c3.3-3.1 7.4-5.1 11.8-5.8.2 0 .3-.1.4-.2.1-.1.2-.4.2-.6-.1-.4-.4-.6-.8-.6-4.9.7-9.4 3-13 6.5-.2.2-.3.5-.1.8l7.9 15.4 2.7 5.3 3.5 6.8c.4.8 1.2 1.3 2.1 1.3.9 0 1.7-.5 2.1-1.3l4.9-9.4 2 2c1.1 1.1 2.9 1.1 4.1.1l.1-.1c.5-.5.8-1.2.9-2 0-.8-.3-1.5-.8-2.1l-3.3-3.3 1.8-3.4 2.2 2.2c.9 1 2.5.9 3.5 0 .5-.5.7-1.1.7-1.7 0-.7-.2-1.3-.7-1.7l-3.3-3.3 2.5-4.9c.1-.3.1-.6-.1-.8-3.7-3.4-8.2-5.7-13.1-6.4zm.5 6.3c1.3.3 2.5.7 3.8 1.3-.1.3-.3.6-.5.8-.8.8-2 .8-2.8 0-.6-.5-.8-1.4-.5-2.1zm-7.7 18.5c0 .8-.3 1.5-.9 2l-2.3-4.5c.2 0 .4-.1.6-.1.7 0 1.4.3 1.9.8.4.4.7 1.1.7 1.8zm5.2 8.4c-.8-.8-.7-2 0-2.8.5-.5 1.1-.6 1.7-.5l-1.7 3.3zm5.2-10.7c0 1.4-1.2 2.6-2.6 2.6-.7 0-1.3-.3-1.8-.7-.5-.5-.7-1.1-.7-1.8s.3-1.4.8-1.8 1.1-.8 1.8-.8 1.3.3 1.8.7c.4.5.7 1.1.7 1.8zm5.8-10.5c-.1.3-.1.6.1.8l3.7 3.7c.2.2.3.5.3.7 0 .3-.1.6-.3.8-.4.4-1.1.4-1.5 0l-2.9-2.9c-.2-.2-.4-.2-.6-.2-.2 0-.4.2-.5.4l-2.4 4.7c-.1.3-.1.6.1.8l3.6 3.7c.3.3.4.7.4 1.1 0 .4-.2.8-.5 1.1-.6.6-1.5.5-2.1-.1l-2.3-2.3c.2-.5.4-1.1.4-1.6 0-1.1-.4-2.1-1.1-2.8-.7-.7-1.7-1.2-2.8-1.2-2.2 0-4 1.8-4 4 0 1.1.4 2.1 1.1 2.8s1.7 1.2 2.8 1.2c.3 0 .7 0 1-.1l-1.2 2.3c-1.2-.4-2.5 0-3.3.8a3.32 3.32 0 0 0 0 4.7l.3.3c-.2.2-.5.4-.8.4-.4 0-.7-.2-.9-.5l-3.2-6.3c.2-.1.3-.3.5-.4.7-.7 1.2-1.7 1.2-2.8 0-1.1-.4-2.1-1.2-2.8-.8-.8-1.8-1.2-2.8-1.2-.4 0-.9.1-1.3.2L145 30.6c5.1-3.9 10.2-5.5 15.3-4.8-.3 1.2 0 2.4.9 3.3 1.3 1.3 3.5 1.3 4.8 0 .3-.3.6-.8.8-1.2 1.4.7 2.8 1.6 4.1 2.7l-.6.8z" class="st1"/><path d="M155.3 29.1c-.8-.8-1.8-1.2-2.9-1.2-2.3 0-4.2 1.9-4.2 4.2 0 1.1.4 2.2 1.2 2.9.8.8 1.8 1.2 2.9 1.2 1.1 0 2.2-.5 2.9-1.2s1.2-1.8 1.2-2.9c.1-1.2-.4-2.2-1.1-3zm-.2 2.9c0 1.5-1.3 2.8-2.8 2.8-.7 0-1.4-.3-2-.8-.5-.5-.8-1.2-.8-2s.3-1.5.8-2 1.2-.8 2-.8c.7 0 1.4.3 2 .8.5.6.8 1.3.8 2zm6.3-.6c-2 0-3.7 1.6-3.7 3.6 0 .2.1.4.2.5.1.1.3.2.5.2l5.9.1c.2 0 .4-.1.5-.2.1-.1.2-.3.2-.5 0-2-1.6-3.7-3.6-3.7zm2.1 3l-4.4-.1c.3-.9 1.2-1.6 2.2-1.6 1.1.1 1.9.8 2.2 1.7zM129.8 75c-.5-.4-1.1-.7-1.7-.6-5.6.2-11.3 1.8-16.2 4.4-5 2.6-9.4 6.4-12.8 10.9-.4.5-.5 1.1-.4 1.7.1.6.4 1.2 1 1.5l3.1 2.1 1.8 1.2v1.6c0 .4.3.8.8.8s.8-.3.8-.8v-2c0-.3-.1-.5-.3-.6l-1.5-1c.7-.9 1.4-1.8 2.2-2.7.8-.9 1.6-1.7 2.5-2.5.9-.8 1.7-1.5 2.7-2.1 1-.7 2-1.3 3-1.9 1-.6 2.1-1.1 3.2-1.5.1-.1.3-.1.4-.2 0 .6.1 1.1.3 1.7.4 1 1.2 1.8 2.3 2.2.5.2 1 .3 1.5.3.6 0 1.1-.1 1.6-.3 1-.4 1.8-1.2 2.2-2.3.4-1 .4-2.1 0-3.2-.1-.1-.1-.3-.2-.4 1-.1 2.1-.2 3.1-.2v19.1c-1.2.4-2.2 1.4-2.6 2.7-.4 1.4-.1 2.9.9 4 .5.5 1.1.9 1.7 1.2v3.1l-3.6-2.4c-.2-.2-.5-.2-.8 0-.2.1-.4.4-.4.7v1.8c0 .4-.3.7-.7.7s-.7-.3-.7-.7v-4.1c1.1-1.2 1.4-2.9.7-4.4-.9-2.1-3.3-3.1-5.4-2.2-.9.4-1.6 1-2 1.9l-1-.7c-.2-.2-.5-.2-.8 0-.2.1-.4.4-.4.7v2.9c0 .4-.3.7-.7.7-.4 0-.7-.3-.7-.7v-4.9c0-.3-.1-.5-.3-.6l-3.5-2.4c-.2-.2-.5-.2-.8 0-.2.1-.4.4-.4.7v9.8c0 .4-.3.7-.7.7-.4 0-.7-.3-.7-.7v-4.1c0-.4-.3-.8-.8-.8s-.8.3-.8.8v4.1c0 1.2 1 2.2 2.2 2.2s2.2-1 2.2-2.2v-8.7l2 1.4v4.5c0 1.2 1 2.2 2.2 2.2 1.2 0 2.2-1 2.2-2.2v-1.5l.6.4 5.2 3.5.1.1v3.3c0 1.2 1 2.2 2.2 2.2 1.2 0 2.2-1 2.2-2.2v-.3l3.6 2.4c.5.3 1.2 0 1.2-.6V76.6c-.1-.6-.3-1.2-.8-1.6zm-12.5 28.2c.3-.6.7-1.1 1.3-1.3 1.3-.6 2.9 0 3.4 1.4.4 1 .2 2.1-.5 2.9l-2.8-1.9-1.4-1.1zm-17.1-12c0-.2 0-.4.1-.6 3.2-4.3 7.5-8 12.3-10.5 4.8-2.5 10.2-4 15.6-4.2.2 0 .4.1.5.2.2.1.2.3.2.6v2.9c-1.2 0-2.4.1-3.6.3-.3 0-.7.1-1 .2-1.8.3-3.7.8-5.4 1.4-1.2.4-2.5 1-3.6 1.5-1.2.6-2.4 1.2-3.5 2-1.1.7-2.2 1.5-3.2 2.3-1 .8-2 1.8-2.9 2.7-.9.9-1.7 1.9-2.5 3-.1.1-.2.3-.3.4l-2.4-1.7c-.2-.1-.3-.3-.3-.5zm24.5-6.9c-.3.6-.8 1.2-1.4 1.4-.6.3-1.4.3-2 0-.6-.3-1.2-.8-1.4-1.4-.2-.5-.3-1.1-.1-1.7 1.1-.4 2.3-.7 3.5-.9.3-.1.6-.1 1-.2.2.2.4.5.5.7.2.8.2 1.5-.1 2.1zm3.2 20.9c-.3-.6-.3-1.4 0-2 .2-.5.6-1 1.1-1.3v4.5c-.5-.3-.9-.7-1.1-1.2z" class="st1"/><path d="M111.2 96.8c.5.2 1 .3 1.5.3.6 0 1.1-.1 1.6-.3 2.1-.9 3.1-3.3 2.2-5.4-.4-1-1.2-1.8-2.3-2.2-1-.4-2.1-.4-3.2 0-1 .4-1.8 1.2-2.2 2.3-.4 1-.4 2.1 0 3.2s1.4 1.7 2.4 2.1zm-.9-4.8c.3-.6.8-1.2 1.4-1.4.3-.1.7-.2 1-.2.3 0 .7.1 1 .2.6.3 1.2.8 1.4 1.4.6 1.3 0 2.9-1.4 3.4-.6.3-1.4.3-2 0-.6-.3-1.2-.8-1.4-1.4-.3-.6-.3-1.3 0-2zm12.2 6.4c.5.2 1 .3 1.5.3.6 0 1.1-.1 1.6-.3 1-.4 1.8-1.2 2.2-2.3.4-1 .4-2.1 0-3.2-.4-1-1.2-1.8-2.3-2.2-1-.4-2.1-.4-3.2 0-1 .4-1.8 1.2-2.2 2.3-.4 1-.4 2.1 0 3.2s1.3 1.8 2.4 2.2zm-.9-4.8c.3-.6.8-1.2 1.4-1.4.3-.1.7-.2 1-.2.3 0 .7.1 1 .2.6.3 1.2.8 1.4 1.4.3.6.3 1.4 0 2-.3.6-.8 1.2-1.4 1.4-.6.3-1.4.3-2 0-.6-.3-1.2-.8-1.4-1.4-.3-.6-.3-1.4 0-2zm-16.3 8.1c.3 0 .6-.2.7-.5.1-.3 0-.7-.3-.9-.2-.2-.6-.2-.9 0-.3.2-.4.5-.4.8.2.3.5.6.9.6zm159.4-49.2c-.7 0-1.3-.1-1.9-.4-12.2-5.7-20.6-14-25.7-25.4-1-2.3 0-4.9 2.2-6 1.1-.5 2.3-.6 3.5-.2 1.2.4 2.1 1.3 2.6 2.4 4.6 9.7 11.7 16.7 21.1 21 2.1.9 3.2 3.3 2.4 5.5-.5 1.9-2.3 3.1-4.2 3.1zm-23.4-31c-.5 0-1 .1-1.4.3-1.6.8-2.3 2.7-1.6 4.3 5 11.1 13.2 19.2 25.1 24.8 1.6.8 3.6 0 4.3-1.6.8-1.6 0-3.6-1.6-4.3-9.7-4.3-17.1-11.6-21.8-21.6-.4-.8-1.1-1.4-1.9-1.7-.4-.1-.8-.2-1.1-.2z" class="st1"/><path d="M268 45.4l-1.2-.4 12.5-34.9-34.8 12.8-.4-1.2 36-13.3c.3-.1.7 0 .8.4.1.1.1.3 0 .4L268 45.4z" class="st1"/><path d="M251.8 24.5c-2.1 0-3.8-1.7-3.8-3.8h1.3c0 1.4 1.1 2.5 2.5 2.5s2.5-1.1 2.5-2.5c0-.6-.2-1.2-.6-1.6l1-.8c1.4 1.6 1.2 4-.4 5.4-.7.5-1.6.8-2.5.8zm11.7 13.1c-2.1 0-3.8-1.7-3.8-3.8 0-1 .4-2 1.1-2.7 1.5-1.5 3.9-1.5 5.4 0 1.5 1.5 1.5 3.9 0 5.4-.8.7-1.7 1.1-2.7 1.1zm-1.8-5.6c-1 1-1 2.6 0 3.6s2.6 1 3.6 0 1-2.6 0-3.6-2.6-1-3.6 0zm1.9-5.4c-2.1 0-3.8-1.7-3.8-3.8 0-2.1 1.7-3.8 3.8-3.8s3.8 1.7 3.8 3.8c0 1-.4 2-1.1 2.7-.7.7-1.7 1.1-2.7 1.1zm0-6.3c-1.4 0-2.5 1.1-2.5 2.5s1.1 2.5 2.5 2.5 2.5-1.1 2.5-2.5c0-.7-.3-1.3-.7-1.8-.5-.5-1.1-.7-1.8-.7zm11.4 3.5c-1 0-2-.4-2.7-1.1-1.5-1.5-1.5-3.9 0-5.4 1.4-1.4 3.8-1.5 5.3-.1l-.9.9c-1-.9-2.6-.9-3.6.2-.9 1-.9 2.5.1 3.5.5.5 1.2.8 1.9.7l.1 1.3h-.2zm-19.7 6.7h1.3l.1 2.9h-1.3l-.1-2.9zm-.4-3.3l.1-1.3 3.8.4-.1 1.3-3.8-.4zm14.6 1.4l.8-1 2.7 2.3-.8 1-2.7-2.3zm-3.4-14.3l1.2-.4.6 1.8-1.2.4-.6-1.8zm-51.3 34.3c-1.2-.2-2.4.3-3.2 1.2-1.4 1.6-1 3.8.4 5l-27.7 30c-2.1 2.3-.5 6 2.6 6 26.4.5 18.4.4 40.6.8-.2 1.8 1.2 3.7 3.3 3.8 1.3.1 2.4-.5 3.1-1.5 12.4-17.5 2.1-41.9-19.1-45.3zm5.8 9.3c-1.8 5.4-8.4 7.4-12.9 3.9l5.8-6.3c.8.1 3.7.5 7.1 2.4zm-29.1 21.4c1.4 1.9.6 4.7-1.6 5.6-1.1.5-2.4.4-3.4-.2l5-5.4zm-4.6 9.9c-1.7 0-2.6-2.1-1.5-3.4 1.5 1.1 3.5 1.2 5.1.5 3.3-1.4 4.3-5.5 2-8.3l14-15.2c5.3 4.2 13 2 15.4-4.3 10.6 6.7 13.4 20.9 6.1 31.2 0 .1-.1.1-.1.2l-5.7-.1c-.6-4.8-5.6-7.6-9.9-5.8-2.3 1-3.9 3-4.2 5.5l-21.2-.3zm26.1-3.6c3.3-1.4 7.2.7 7.7 4.3l-11-.2c.4-1.8 1.6-3.3 3.3-4.1zm19.6 7.4c-.4.5-1 .8-1.7.8-1.7-.1-2.3-1.9-1.5-3 10.1-14.2 1.8-34.1-15.5-36.9-1.5-.2-2.2-2-1.2-3.2.5-.6 1.1-.8 1.8-.7 19.9 3.3 29.9 26.3 18.1 43z" class="st1"/><path d="M199.7 77.7c-.4.2-.6.6-.4 1 1.2 2.8-.1 6.1-2.9 7.3-.7.3-.6 1.2 0 1.5.2.1.4.1.6 0 3.6-1.6 5.3-5.8 3.7-9.4-.1-.3-.6-.5-1-.4zm15.4 3.2c.2.4.6.6 1 .4 3.3-1.4 7.1.1 8.5 3.4.2.4.6.6 1 .4.4-.2.6-.6.4-1-1.8-4.1-6.5-6-10.6-4.2-.3.1-.5.6-.3 1zm3.2-4.9c3.7 1.5 7.3-2.3 5.7-5.9-1.6-3.6-6.7-3.5-8.2.1-.9 2.3.3 4.9 2.5 5.8zm4.3-5.3c.6 1.4 0 3.1-1.5 3.7-2.3 1-4.7-1.3-3.8-3.7 1-2.2 4.3-2.3 5.3 0zm-13.1 4.5c1.8-.8 2.6-2.8 1.8-4.6-.8-1.8-2.8-2.6-4.6-1.8-1.8.8-2.6 2.8-1.8 4.6.8 1.8 2.9 2.6 4.6 1.8zm-2.1-5c1-.4 2.1 0 2.5 1 .7 1.6-.9 3.2-2.5 2.6-1.6-.6-1.6-2.9 0-3.6zm-1.7 9.9c-1.3.6-1.9 2.1-1.4 3.4.6 1.3 2.1 1.9 3.4 1.4 1.3-.6 1.9-2.1 1.4-3.4-.5-1.3-2.1-1.9-3.4-1.4zm1.4 3.4c-.5.2-1.1 0-1.3-.5-.2-.5 0-1.1.5-1.3.5-.2 1.1 0 1.3.5.3.4.1 1-.5 1.3z" class="st1"/><circle cx="226.2" cy="77.1" r=".9" class="st1"/><circle cx="223.3" cy="63.5" r=".9" class="st1"/><circle cx="226.8" cy="87.7" r=".9" class="st1"/><circle cx="198.6" cy="75.1" r=".9" class="st1"/><circle cx="212.7" cy="78" r=".9" class="st1"/><path d="M61.5 78.8c-.1-.9-.5-1.8-1.2-2.4-.7-.6-1.6-.9-2.5-.8s-1.8.5-2.4 1.2c-.6.7-.9 1.6-.8 2.5.1.9.5 1.8 1.2 2.4.7.6 1.6.9 2.5.8s1.8-.5 2.4-1.2c.6-.7.9-1.6.8-2.5zm-4.8 1.8c-.4-.4-.7-.8-.7-1.4 0-.5.1-1.1.5-1.5.4-.4.8-.7 1.4-.7.5 0 1.1.1 1.5.5.4.4.7.8.7 1.4 0 .5-.1 1.1-.5 1.5-.4.4-.8.7-1.4.7-.6 0-1.1-.1-1.5-.5zm-6.3-2.2c-1.5-1.2-3.7-1.1-4.9.4-.6.7-.9 1.6-.8 2.5.1.9.5 1.7 1.2 2.4 1.5 1.2 3.7 1.1 4.9-.4 1.3-1.5 1.1-3.7-.4-4.9zm-3.5 4.2c-.9-.7-1-2-.2-2.9.7-.9 2-1 2.9-.2.4.4.7.9.7 1.4 0 .5-.1 1.1-.5 1.5-.8.8-2.1.9-2.9.2zm-7.2-12.9c-.6.7-.9 1.6-.8 2.5.1.9.5 1.7 1.2 2.4 1.5 1.2 3.7 1.1 4.9-.4.6-.7.9-1.6.8-2.5-.1-.9-.5-1.8-1.2-2.4-1.4-1.2-3.6-1.1-4.9.4zm4 .7c.4.4.7.8.7 1.4 0 .5-.1 1.1-.5 1.5-.4.4-.8.7-1.4.7-.5 0-1.1-.1-1.5-.5-.9-.7-1-2-.2-2.9.8-.8 2.1-.9 2.9-.2zm6.1 17.5v.1c.1.4.5.6.9.5l5.5-1.4c.4-.1.6-.5.5-.9-.1-.4-.5-.6-.9-.5l-5.5 1.4c-.3.1-.5.5-.5.8zm2.8-12.5l-.9-3.6c-.1-.4-.5-.6-.9-.5-.3.1-.6.4-.5.8v.1l.9 3.6c.1.4.5.6.9.5.4-.2.6-.5.5-.9z" class="st1"/><path d="M52.1 102.5c4.1-2.1 8.5-5.7 12.4-10 .3-.3.2-.8-.1-1-.3-.3-.8-.2-1 .1-3.8 4.2-8 7.7-12 9.7-1.1.6-2.5.1-3.1-1-.4-.8-.3-1.8.3-2.5.2-.2.4-.4.7-.5 3.7-1.9 7.8-5.4 11.4-9.5 3.6-4.2 6.4-8.8 7.6-12.7.4-1.2 1.7-1.8 2.9-1.4 1.2.4 1.8 1.7 1.4 2.9-1.3 4-3.9 8.5-7.2 12.7-.2.3-.2.8.1 1 .3.2.8.2 1-.1 3.5-4.4 6.1-9 7.5-13.2.6-1.9-.4-4.1-2.4-4.7-1.5-.5-3.1 0-4.1 1.2l-8.9-3c-.4-.1-.8.1-.9.5v.3c0 .3.2.5.5.6l8.7 2.9c-1.3 3.7-3.9 8.1-7.3 12.1s-7.4 7.3-10.8 9.1l-7.7-15c-.1-.3-.4-.4-.7-.4l-12.1.9c-.9.1-1.7-.6-1.7-1.5-.1-.9.6-1.7 1.5-1.7l3.3-.3c.4 0 .7-.4.7-.8s-.4-.7-.8-.7l-3.3.4c-1.7.1-2.9 1.6-2.8 3.3.1 1.7 1.6 2.9 3.3 2.8l11.5-.9 7.6 14.7s0 .1-.1.1c-.7.8-1 1.7-.9 2.7 0 .5.2 1 .4 1.4 1 1.7 3.3 2.5 5.1 1.5z" class="st1"/><path d="M34.4 76.4c-.4 0-.7.4-.7.8s.4.7.8.7l3.7-.3c.2 0 .5-.2.6-.4.1-.2.1-.5 0-.7l-2.6-5c-.1-.3-.4-.4-.7-.4l-5.8.5c-.9.1-1.7-.6-1.7-1.5-.1-.9.6-1.7 1.5-1.7l3.9-.3c.2 0 .5-.2.6-.4s.1-.5 0-.7l-2-3.6c-.1-.1 0-.3 0-.3 0-.1.1-.1.3-.1l23 7.7c.4.1.8-.1.9-.5.1-.4-.1-.8-.5-.9l-23-7.7c-.7-.2-1.4 0-1.9.5s-.5 1.3-.2 1.9l1.4 2.6-2.8.2c-1.7.1-2.9 1.6-2.8 3.3.1 1.7 1.6 2.9 3.3 2.8l5.3-.4 1.9 3.6-2.5.3z" class="st1"/></g><g class="st0"><path d="M244 179.9c1.2 6.3 3.3 12.3 6.3 17.9 3 5.6 6.9 10.7 11.5 15 .8.8 1.9 1.2 3 1.2s2.2-.5 3-1.3c1-1.1 1.4-2.5 1.1-3.8l2.6-3.5 1.2-1.6 11.4-15.5 1.3-1.7 6-8.2c.7-.9.8-2 .3-2.9-.5-1-1.5-1.5-2.6-1.4l-13.5.8c-.4 0-.7.3-.6.7s.3.7.7.6l13.5-.8c.6 0 1.1.2 1.3.7.3.5.2 1.1-.1 1.5l-1.9 2.6c-.7-1.1-1.8-2-3.1-2.4-2.9-.9-6 .8-6.8 3.7-.9 2.9.8 6 3.7 6.8.1 0 .1 0 .2.1l-6.4 8.7c-.7-1-1.7-1.8-3-2.2-2.9-.9-6 .8-6.8 3.7-.9 2.9.8 5.9 3.7 6.8l-1.5 2.1c-1.6-1.8-3.5-3.5-5-5.4-.2-.3-.7-.3-.9-.1s-.3.7-.1.9c1.4 1.7 2.9 3.3 4.5 4.8 1.2 1.1 1.2 2.9.1 4.1-.5.6-1.3.9-2 .9-.8 0-1.5-.3-2.1-.8-4.5-4.3-8.3-9.2-11.3-14.7s-5.1-11.4-6.2-17.5c-.3-1.6.7-3.1 2.3-3.4 1.6-.3 3.1.8 3.4 2.3 1.5 7.9 4.6 15.2 9.3 21.7.2.3.6.4.9.1.3-.2.4-.6.1-.9-4.9-6.6-7.7-14.2-9.4-22.2l20.4-1.2c.4 0 .7-.3.6-.7 0-.4-.3-.7-.7-.6l-21.3 1.2c-1-.9-2.3-1.3-3.6-1.1-2.4.5-3.9 2.7-3.5 5zm38.5 7c-2.2-.6-3.5-3-2.8-5.2.6-2.2 3-3.5 5.2-2.8 1.2.3 2.1 1.2 2.6 2.3l-3.2 4.4-1.1 1.5c-.3-.1-.5-.2-.7-.2zM270.3 204c-2.2-.6-3.5-3-2.8-5.2.6-2.2 3-3.5 5.2-2.8 1.1.3 2 1.1 2.5 2l-3.1 4.3-1.3 1.8c-.3 0-.4 0-.5-.1z" class="st1"/><path d="M271.9 185.3c.3.1.7-.1.8-.4 1-2.9-.7-6.1-3.7-7-2.9-.9-6 .8-6.8 3.7s.8 6 3.7 6.8c1.6.5 3.3.2 4.6-.7.3-.2.4-.6.2-.9-.2-.3-.6-.4-.9-.2-1 .7-2.3.9-3.5.5-2.2-.6-3.5-3-2.8-5.2.6-2.2 3-3.5 5.2-2.8 2.2.7 3.5 3.1 2.8 5.3-.2.4 0 .8.4.9zm-6.2 5.6h-.2c-.1 0-2.6 0-3.8 1.6-1.1 1.6-.4 4-.4 4.1.1.3.3.5.6.5.1 0 2.6 0 3.8-1.6 1.1-1.6.4-4 .4-4.1 0-.2-.1-.4-.4-.5zm-1 3.8c-.5.7-1.5.9-2.1 1-.1-.7-.2-1.8.3-2.4.5-.7 1.5-.9 2.1-1 .2.7.2 1.7-.3 2.4zm-6.5-7.7c-.3-.2-.7-.2-.9.1-.2.3-.2.7.1.9.9.7 1.9 1 2 1 .3.1.6 0 .7-.3.1-.1 1.4-2.2.6-4-.7-1.7-2.8-2.4-3.2-2.5-.3-.1-.6 0-.7.3 0 0-.6.9-.8 2-.1.4.2.7.5.8.4.1.7-.2.8-.5.1-.4.2-.8.3-1.1.6.3 1.6.8 1.9 1.5.3.7 0 1.7-.3 2.3-.2 0-.6-.2-1-.5zm17 5.9c.2.2.6.1.8-.1.1-.1 1.9-1.7 1.8-3.7-.2-1.9-2.3-3.3-2.4-3.3-.2-.2-.6-.1-.8.1-.1.1-1.9 1.7-1.8 3.7.2 1.9 2.3 3.2 2.4 3.3zm-.1-5.7c.5.4 1.2 1.2 1.3 2 .1.8-.5 1.6-.9 2.1-.5-.4-1.2-1.2-1.3-2-.1-.7.5-1.5.9-2.1zm-222 41.9c-.3.1-.5.3-.5.6s.1.5.3.7c.3.1.6.1.8-.1.2-.2.3-.5.2-.8-.1-.3-.5-.4-.8-.4z" class="st1"/><path d="M50 230.3c.4.1.7-.2.8-.6.1-.4-.2-.7-.6-.8-4.5-.6-8.6-2.5-11.8-5.6l1.3-2.5c1.6 1.2 3.3 2.2 5 3 1.7.8 3.4 1.3 5.1 1.7 5.7 1 11.4-.6 17.1-4.9l1.3 2.5c-3.3 3.1-7.3 5.2-11.8 5.8-.2 0-.3.1-.4.2-.1.1-.2.4-.2.6.1.4.4.6.8.6 4.9-.7 9.4-3 12.9-6.6.2-.2.3-.5.1-.8l-8-15.4-2.7-5.3-3.5-6.8c-.4-.8-1.2-1.3-2.1-1.3-.9 0-1.7.5-2.1 1.3l-4.8 9.4-2-1.9c-1.1-1.1-2.9-1.1-4.1-.1l-.1.1c-.5.5-.8 1.3-.8 2 0 .8.3 1.5.8 2.1l3.3 3.3-1.7 3.4-2.2-2.2c-1-.9-2.5-.9-3.5 0-.5.5-.7 1.1-.7 1.7 0 .7.3 1.3.7 1.7l3.3 3.3-2.5 4.9c-.1.3-.1.6.1.8 3.6 3.5 8.1 5.7 13 6.4zm-.5-6.3c-1.3-.3-2.5-.7-3.8-1.2.1-.3.3-.6.5-.8.8-.8 2-.8 2.8 0 .6.5.7 1.3.5 2zm7.6-18.5c0-.8.3-1.5.9-2l2.3 4.5c-.2.1-.4.1-.6.1-.7 0-1.4-.3-1.9-.8-.5-.4-.7-1.1-.7-1.8zm-5.3-8.4c.8.8.8 2 0 2.8-.5.5-1.1.7-1.7.6l1.7-3.4zm-5.1 10.7c0-1.4 1.2-2.6 2.6-2.6.7 0 1.3.3 1.8.7.5.5.8 1.1.8 1.8s-.3 1.4-.8 1.8c-.5.5-1.1.8-1.8.8s-1.3-.3-1.8-.7c-.5-.4-.8-1.1-.8-1.8zm-5.8 10.6c.1-.3.1-.6-.1-.8l-3.7-3.7c-.2-.2-.3-.5-.3-.7 0-.3.1-.6.3-.8.4-.4 1.1-.4 1.5 0l2.9 2.9c.2.2.4.2.6.2.2 0 .4-.2.5-.4l2.4-4.7c.1-.3.1-.6-.1-.8l-3.7-3.6c-.3-.3-.4-.7-.4-1.1 0-.4.2-.8.5-1.1.6-.6 1.5-.5 2.1 0l2.3 2.3c-.2.5-.4 1.1-.4 1.6 0 1.1.4 2 1.2 2.8.7.7 1.7 1.1 2.8 1.1 2.2 0 4-1.8 3.9-4 0-1.1-.4-2-1.2-2.8-.7-.7-1.7-1.1-2.8-1.1-.3 0-.7 0-1 .1l1.2-2.3c1.2.3 2.5 0 3.3-.9 1.3-1.3 1.3-3.4 0-4.7l-.3-.3c.2-.2.5-.4.8-.4.4 0 .7.2.9.5l3.2 6.2c-.2.1-.3.3-.5.4-.7.7-1.2 1.8-1.2 2.8 0 1.1.4 2.1 1.2 2.8.8.8 1.8 1.2 2.8 1.2.4 0 .9-.1 1.3-.2l5.2 10c-5.1 3.9-10.2 5.6-15.3 4.9.3-1.2 0-2.4-.9-3.3-1.3-1.3-3.5-1.3-4.8 0-.3.3-.6.8-.8 1.2-1.4-.7-2.8-1.6-4.1-2.6l.7-.7z" class="st1"/><path d="M56 220.6c.8.8 1.8 1.2 3 1.2 2.3 0 4.2-1.9 4.2-4.2 0-1.1-.4-2.2-1.2-2.9-.8-.8-1.8-1.2-3-1.2-1.1 0-2.2.5-2.9 1.2-.8.8-1.2 1.8-1.2 3-.2 1.1.3 2.1 1.1 2.9zm.1-2.9c0-1.5 1.3-2.8 2.8-2.8.7 0 1.4.3 2 .8.5.5.8 1.2.8 2s-.3 1.5-.8 2-1.2.8-2 .8c-.7 0-1.4-.3-2-.8-.5-.6-.8-1.3-.8-2zm-6.2.7c2 0 3.7-1.6 3.7-3.6 0-.2-.1-.4-.2-.5-.1-.1-.3-.2-.5-.2L47 214c-.2 0-.4.1-.5.2-.1.1-.2.3-.2.5-.1 2 1.5 3.6 3.6 3.7zm-2.2-3.1l4.4.1c-.3.9-1.2 1.6-2.2 1.6-1 0-1.9-.7-2.2-1.7zm115.7-66.2c.5.4 1.1.7 1.7.6 5.6-.3 11.2-1.8 16.2-4.5s9.4-6.5 12.7-11c.4-.5.5-1.1.4-1.7-.1-.6-.5-1.2-1-1.5l-3.1-2.1-1.8-1.2v-1.6c0-.4-.3-.8-.8-.8-.4 0-.8.3-.8.8v2c0 .3.1.5.3.6l1.5 1-2.1 2.7c-.8.9-1.6 1.7-2.5 2.5-.8.8-1.7 1.5-2.7 2.1-1 .7-2 1.3-3 1.9-1 .6-2.1 1.1-3.2 1.6-.1.1-.3.1-.4.2 0-.6-.1-1.1-.3-1.7-.4-1-1.3-1.8-2.3-2.2-.5-.2-1-.3-1.5-.3-.6 0-1.1.1-1.6.3-1 .4-1.8 1.3-2.2 2.3-.4 1-.4 2.2.1 3.2.1.1.1.3.2.4-1 .1-2.1.2-3.1.2l-.1-19.1c1.2-.4 2.2-1.4 2.6-2.7.4-1.4.1-2.9-.9-4-.5-.5-1.1-.9-1.7-1.1v-3.1l3.6 2.4c.2.2.5.2.8 0 .2-.1.4-.4.4-.7v-1.8c0-.4.3-.7.7-.7.4 0 .7.3.7.7v3.8c0 .1 0 .2.1.3-1.1 1.2-1.4 2.9-.7 4.4.9 2.1 3.4 3 5.4 2.1.9-.4 1.6-1 2-1.9l1 .7c.2.2.5.2.8 0 .2-.1.4-.4.4-.7v-2.9c0-.4.3-.7.7-.7.4 0 .7.3.7.7v4.9c0 .3.1.5.3.6l3.5 2.4c.2.2.5.2.8 0 .2-.1.4-.4.4-.7l-.1-10.2c0-.4.3-.7.7-.7.4 0 .7.3.7.7v4.1c0 .4.3.8.8.8.4 0 .8-.3.8-.8v-4.1c0-1.2-1-2.2-2.2-2.2s-2.2 1-2.2 2.2l.1 8.7-2-1.3v-4.5c0-1.2-1-2.2-2.2-2.2-1.2 0-2.2 1-2.2 2.2v1.5l-.6-.4-5.2-3.5-.1-.1v-3.3c0-1.2-1-2.2-2.2-2.2-1.2 0-2.2 1-2.2 2.2v.3l-3.6-2.4c-.5-.3-1.2 0-1.2.6l.2 35.9c-.2 1 .1 1.6.5 2zm12.3-28.2c-.3.6-.7 1.1-1.3 1.3-1.3.6-2.9 0-3.4-1.3-.4-1-.2-2.1.5-2.9l2.8 1.9 1.4 1zm17.3 11.9c0 .2 0 .4-.1.6-3.2 4.4-7.4 8-12.2 10.6-4.8 2.6-10.2 4-15.6 4.3-.2 0-.4-.1-.5-.2-.2-.1-.2-.3-.2-.6v-2.9c1.2 0 2.4-.1 3.6-.3.3 0 .7-.1 1-.2 1.8-.3 3.7-.8 5.4-1.4 1.2-.4 2.5-1 3.6-1.5 1.2-.6 2.4-1.3 3.5-2s2.1-1.5 3.2-2.4c1-.9 2-1.8 2.9-2.7.9-1 1.7-2 2.5-3 .1-.1.2-.3.3-.4l2.5 1.6c-.1.1.1.3.1.5zm-24.5 7c.3-.6.7-1.2 1.4-1.4.6-.3 1.3-.3 2 0 .6.3 1.2.7 1.4 1.4.2.5.3 1.1.1 1.7-1.1.4-2.3.7-3.5 1-.3.1-.6.1-1 .2-.2-.2-.4-.5-.5-.7-.2-.9-.2-1.6.1-2.2zm-3.4-20.9c.3.6.3 1.3 0 2-.2.5-.6 1-1.1 1.3v-4.5c.5.3.9.7 1.1 1.2z" class="st1"/><path d="M181.9 127.2c-.5-.2-1-.3-1.5-.3-.6 0-1.1.1-1.6.3-2.1.9-3 3.4-2.1 5.4.4 1 1.3 1.8 2.3 2.2 1 .4 2.2.4 3.2-.1 1-.4 1.8-1.3 2.2-2.3.4-1 .4-2.2-.1-3.2-.5-.9-1.3-1.6-2.4-2zm1 4.8c-.3.7-.7 1.2-1.4 1.4-.3.1-.7.2-1 .2-.3 0-.7-.1-1-.2-.6-.3-1.2-.7-1.4-1.4-.6-1.3 0-2.9 1.3-3.4.6-.3 1.3-.3 2 0s1.2.7 1.4 1.4c.3.6.3 1.3.1 2zm-12.2-6.3c-.5-.2-1-.3-1.5-.3-.6 0-1.1.1-1.6.3-1 .4-1.8 1.3-2.2 2.3-.4 1-.4 2.2.1 3.2.4 1 1.3 1.8 2.3 2.2 1 .4 2.2.4 3.2-.1 1-.4 1.8-1.3 2.2-2.3.4-1 .4-2.2-.1-3.2s-1.4-1.7-2.4-2.1zm.9 4.8c-.3.6-.7 1.2-1.4 1.4-.3.1-.7.2-1 .2-.3 0-.7-.1-1-.2-.6-.3-1.2-.7-1.4-1.4-.3-.6-.3-1.3 0-2 .3-.6.7-1.2 1.4-1.4.6-.3 1.3-.3 2 0 .6.3 1.2.7 1.4 1.4.2.6.2 1.3 0 2zm16.2-8.2c-.3 0-.6.2-.7.5-.1.3 0 .7.3.8.2.2.6.2.9 0 .3-.2.4-.5.3-.8-.1-.2-.4-.5-.8-.5zM109.3 163c.7 0 1.3.1 1.9.4 12.2 5.7 20.7 13.9 25.8 25.2 1 2.3 0 4.9-2.2 6-1.1.5-2.3.6-3.5.2-1.2-.4-2.1-1.3-2.6-2.4-4.6-9.7-11.8-16.7-21.2-20.8-2.1-.9-3.2-3.3-2.5-5.5.6-1.8 2.3-3.1 4.3-3.1zm23.6 30.9c.5 0 1-.1 1.4-.3 1.6-.8 2.3-2.7 1.6-4.3-5-11-13.3-19.1-25.2-24.6-1.6-.7-3.6 0-4.3 1.6s0 3.6 1.6 4.3c9.8 4.3 17.1 11.5 21.9 21.5.4.8 1.1 1.4 1.9 1.7.3 0 .7.1 1.1.1z" class="st1"/><path d="M106 170.2l1.2.4-12.3 35 34.7-13 .4 1.2-36 13.5c-.3.1-.7 0-.8-.4-.1-.1-.1-.3 0-.4l12.8-36.3z" class="st1"/><path d="M122.3 190.9c2.1 0 3.8 1.7 3.8 3.8h-1.3c0-1.4-1.2-2.5-2.6-2.5-1.4 0-2.5 1.2-2.5 2.6 0 .6.2 1.2.6 1.6l-1 .8c-1.4-1.6-1.2-4 .4-5.4.8-.5 1.7-.9 2.6-.9zm-11.7-13c2.1 0 3.8 1.7 3.8 3.8 0 1-.4 2-1.1 2.7-1.5 1.5-3.9 1.5-5.4 0s-1.5-3.9 0-5.4c.7-.7 1.7-1.1 2.7-1.1zm1.8 5.6c1-1 1-2.6 0-3.6s-2.6-1-3.6 0-1 2.6 0 3.6 2.6 1 3.6 0zm-1.9 5.4c2.1 0 3.8 1.7 3.8 3.8 0 2.1-1.7 3.8-3.8 3.8-2.1 0-3.8-1.7-3.8-3.8 0-1 .4-2 1.1-2.7.7-.7 1.7-1.1 2.7-1.1zm0 6.4c1.4 0 2.5-1.2 2.5-2.6s-1.2-2.5-2.6-2.5c-1.4 0-2.5 1.2-2.5 2.6 0 .7.3 1.3.8 1.8.5.4 1.2.7 1.8.7zm-11.4-3.5c1 0 2 .4 2.7 1.1 1.5 1.5 1.5 3.9 0 5.4-1.4 1.5-3.8 1.5-5.3.1l.9-.9c1 .9 2.6.9 3.6-.2.9-1 .9-2.5-.1-3.5-.5-.5-1.2-.8-1.9-.7l-.1-1.3h.2zm19.6-6.8h-1.3l-.1-2.9h1.3l.1 2.9zm.5 3.3l-.1 1.3-3.8-.4.1-1.3 3.8.4zm-14.6-1.3l-.8 1-2.7-2.2.8-1 2.7 2.2zm3.5 14.3l-1.2.4-.6-1.8 1.2-.4.6 1.8zm-36.5-29.7c1.2.2 2.4-.3 3.2-1.2 1.4-1.6 1-3.9-.5-5l27.6-30.2c2.1-2.3.5-6-2.6-6-26.4-.4-18.4-.3-40.6-.6.2-1.8-1.2-3.7-3.3-3.8-1.3-.1-2.4.5-3.1 1.5-12.3 17.6-1.9 42 19.3 45.3zm-5.9-9.3c1.8-5.4 8.4-7.4 12.9-4l-5.8 6.3c-.7-.1-3.6-.4-7.1-2.3zm29-21.6c-1.4-1.9-.7-4.7 1.5-5.6 1.1-.5 2.4-.4 3.4.2l-4.9 5.4zm4.6-10c1.7 0 2.6 2.1 1.5 3.4-1.5-1-3.5-1.2-5.1-.5-3.2 1.4-4.2 5.6-2 8.3l-13.9 15.3c-5.3-4.1-13-1.9-15.4 4.3-10.6-6.7-13.5-20.9-6.3-31.2 0-.1.1-.1.1-.2l5.7.1c.6 4.8 5.6 7.6 10 5.7 2.3-1 3.9-3.1 4.2-5.5l21.2.3zm-26.1 3.8c-3.3 1.5-7.2-.6-7.7-4.2l11 .2c-.4 1.7-1.6 3.2-3.3 4zm-19.6-7.3c.4-.5 1-.8 1.7-.8 1.7.1 2.3 1.8 1.5 3-10 14.3-1.6 34.1 15.7 36.8 1.5.2 2.2 2 1.2 3.2-.5.6-1.1.8-1.8.7-20-3.2-30.1-26.1-18.3-42.9z" class="st1"/><path d="M86.5 142.3c.4-.2.6-.6.4-1-1.2-2.8.1-6.1 2.9-7.3.6-.3.6-1.2 0-1.5-.2-.1-.4-.1-.6 0-3.6 1.6-5.3 5.8-3.7 9.4.1.4.6.6 1 .4zm-15.4-3.1c-.2-.4-.6-.6-1-.4-3.3 1.4-7.1-.1-8.5-3.3-.2-.4-.6-.6-1-.4-.4.2-.6.6-.4 1 1.8 4.1 6.5 5.9 10.6 4.2.3-.2.5-.7.3-1.1zm-3.2 5c-3.7-1.4-7.2 2.3-5.7 5.9 1.6 3.6 6.7 3.5 8.2-.2.9-2.3-.2-4.8-2.5-5.7zm-4.2 5.2c-.6-1.4 0-3.1 1.5-3.7 2.3-1 4.7 1.3 3.8 3.6-1 2.4-4.3 2.4-5.3.1zm13-4.5c-1.8.8-2.6 2.9-1.8 4.6.8 1.8 2.9 2.6 4.6 1.8 1.8-.8 2.6-2.9 1.8-4.6-.7-1.8-2.8-2.6-4.6-1.8zm2.2 5c-1 .4-2.1 0-2.5-1-.7-1.6.9-3.2 2.5-2.6 1.5.6 1.6 2.9 0 3.6zm1.6-9.9c1.3-.6 1.9-2.1 1.3-3.4-.6-1.3-2.1-1.9-3.4-1.3-1.3.6-1.9 2.1-1.3 3.4.6 1.2 2.1 1.8 3.4 1.3zm-1.4-3.4c.5-.2 1.1 0 1.4.5.2.5 0 1.1-.5 1.4-.5.2-1.1 0-1.4-.5-.3-.5-.1-1.1.5-1.4z" class="st1"/><circle cx="60.1" cy="143.1" r=".9" class="st1"/><circle cx="63" cy="156.7" r=".9" class="st1"/><circle cx="59.4" cy="132.5" r=".9" class="st1"/><circle cx="87.6" cy="144.9" r=".9" class="st1"/><circle cx="73.5" cy="142.1" r=".9" class="st1"/><path d="M265.9 121.5c.1.9.5 1.8 1.2 2.4.7.6 1.6.9 2.5.8.9-.1 1.8-.5 2.4-1.2.6-.7.9-1.6.8-2.5s-.5-1.8-1.2-2.4c-.7-.6-1.6-.9-2.5-.8-.9.1-1.8.5-2.4 1.2-.6.7-.9 1.6-.8 2.5zm4.7-1.8c.4.3.7.8.7 1.4 0 .5-.1 1.1-.5 1.5-.3.4-.8.7-1.4.7s-1.1-.1-1.5-.5c-.4-.3-.7-.8-.7-1.4s.1-1.1.5-1.5c.3-.4.8-.7 1.4-.7.6 0 1.1.1 1.5.5zm6.3 2.2c1.5 1.2 3.7 1.1 4.9-.4.6-.7.9-1.6.8-2.5s-.5-1.7-1.2-2.4c-1.5-1.2-3.7-1.1-4.9.4-1.2 1.5-1 3.7.4 4.9zm3.6-4.2c.9.7 1 2 .2 2.9-.7.9-2 1-2.9.2-.4-.4-.7-.9-.7-1.4 0-.5.1-1.1.5-1.5.7-.8 2-.9 2.9-.2zm7.2 12.8c.6-.7.9-1.6.8-2.5-.1-.9-.5-1.7-1.2-2.4-1.5-1.2-3.7-1.1-4.9.4-.6.7-.9 1.6-.8 2.5.1.9.5 1.8 1.2 2.4 1.4 1.3 3.6 1.1 4.9-.4zm-4-.7c-.4-.3-.7-.8-.7-1.4s.1-1.1.5-1.5c.3-.4.8-.7 1.4-.7s1.1.1 1.5.5c.9.7 1 2 .2 2.9-.8.8-2 .9-2.9.2zm-6.2-17.4v-.1c-.1-.4-.5-.6-.9-.5l-5.5 1.4c-.4.1-.6.5-.5.9.1.4.5.6.9.5l5.5-1.4c.3-.2.5-.5.5-.8zm-2.8 12.5l.9 3.6c.1.4.5.6.9.5.3-.1.6-.4.5-.8v-.1l-.9-3.6c-.1-.4-.5-.6-.9-.5-.3.1-.6.5-.5.9z" class="st1"/><path d="M275.1 97.8c-4.1 2.1-8.5 5.7-12.3 10.1-.3.3-.2.8.1 1 .3.3.8.2 1-.1 3.8-4.3 8-7.7 11.9-9.8 1.1-.6 2.5-.1 3.1 1 .4.8.3 1.8-.3 2.5-.2.2-.4.4-.7.5-3.7 1.9-7.8 5.4-11.3 9.6-3.5 4.2-6.3 8.9-7.6 12.8-.4 1.2-1.7 1.8-2.9 1.5-1.2-.4-1.8-1.7-1.5-2.9 1.3-4 3.8-8.5 7.2-12.8.2-.3.2-.8-.1-1-.3-.2-.8-.2-1 .1-3.5 4.4-6 9-7.4 13.2-.6 1.9.5 4.1 2.4 4.7 1.5.5 3.1 0 4-1.2l9 2.9c.4.1.8-.1.9-.5v-.3c0-.3-.2-.5-.5-.6l-8.7-2.9c1.2-3.7 3.9-8.2 7.3-12.2s7.3-7.3 10.8-9.2l7.8 14.8c.1.3.4.4.7.4l12.1-1c.9-.1 1.7.6 1.7 1.5.1.9-.6 1.7-1.5 1.7l-3.3.3c-.4 0-.7.4-.7.8s.4.7.8.7l3.3-.3c1.7-.1 2.9-1.6 2.8-3.3-.1-1.7-1.6-2.9-3.3-2.8l-11.6 1-7.7-14.6s0-.1.1-.1c.7-.8.9-1.7.9-2.7 0-.5-.2-1-.4-1.4-1-1.7-3.3-2.4-5.1-1.4z" class="st1"/><path d="M293 123.8c.4 0 .7-.4.7-.8s-.4-.7-.8-.7l-3.7.3c-.2 0-.5.2-.6.4-.1.2-.1.5 0 .7l2.6 5c.1.3.4.4.7.4l5.8-.5c.9-.1 1.7.6 1.7 1.5.1.9-.6 1.7-1.5 1.7l-3.9.3c-.2 0-.5.2-.6.4-.1.2-.1.5 0 .7l1.9 3.6c.1.1 0 .3 0 .3 0 .1-.1.1-.3.1l-23-7.6c-.4-.1-.8.1-.9.5-.1.4.1.8.5.9l23 7.6c.7.2 1.4 0 1.9-.5s.5-1.3.2-1.9l-1.4-2.6 2.8-.2c1.7-.1 2.9-1.6 2.8-3.3-.1-1.7-1.6-2.9-3.3-2.8l-5.3.4-1.9-3.6 2.6-.3zm-106.1 66.3c-.2-.2-.5-.2-.8-.1-.2.1-.4.4-.4.7 0 .3.3.5.5.6.3.1.6-.1.7-.3.3-.4.2-.7 0-.9z" class="st1"/><path d="M184.1 188.2c.2.3.6.5.9.3.3-.2.5-.6.3-.9-2.1-4-2.9-8.4-2.3-12.9l2.8-.4c0 2.1.1 4 .5 5.8.3 1.8.9 3.6 1.6 5.1 2.5 5.2 7.2 8.9 13.9 11l-1.3 2.5c-4.5-.8-8.5-2.9-11.6-6.2-.1-.1-.2-.2-.4-.2s-.4 0-.6.2c-.3.3-.3.7 0 1 3.5 3.6 7.9 5.9 12.9 6.6.3 0 .6-.1.7-.4l7.8-15.4 2.7-5.3 3.5-6.8c.4-.8.3-1.7-.2-2.4s-1.4-1.1-2.3-1l-10.5 1.6.4-2.7c.2-1.6-.8-3-2.3-3.3h-.1c-.8-.1-1.5.1-2.1.5-.6.5-1.1 1.1-1.2 1.9l-.7 4.6-3.8.6.5-3.1c.2-1.3-.7-2.6-2-2.8-.6-.1-1.3.1-1.8.4-.5.4-.9.9-1 1.6l-.7 4.6-5.5.8c-.3 0-.5.3-.6.6-.7 4.8.1 9.7 2.5 14.1zm4.8-4.1c-.5-1.2-.9-2.5-1.2-3.8.3-.1.6-.1 1-.1 1.1.2 1.8 1.2 1.7 2.3-.2.8-.8 1.4-1.5 1.6zm19.4-4.6c.6-.5 1.4-.6 2.2-.4l-2.3 4.6c-.2-.1-.3-.3-.4-.5-.4-.6-.6-1.3-.5-2 .1-.7.5-1.3 1-1.7zm3.8-9.2c-.2 1.1-1.2 1.8-2.3 1.6-.6-.1-1.2-.5-1.5-1.1l3.8-.5zm-11.7 2.1c1.2-.8 2.8-.6 3.6.6.4.6.6 1.2.5 1.9-.1.7-.5 1.3-1 1.7-.6.4-1.3.6-1.9.5s-1.3-.5-1.7-1c-.4-.6-.6-1.2-.5-1.9.1-.8.4-1.4 1-1.8zm-12 1.4c.3 0 .5-.3.6-.6l.8-5.1c0-.3.2-.5.4-.7.2-.2.5-.2.8-.2.6.1 1 .6.9 1.2l-.6 4c0 .2 0 .4.2.6.2.2.4.2.6.2l5.2-.8c.3 0 .5-.3.6-.6l.8-5.1c.1-.4.3-.7.6-1 .3-.2.7-.3 1.2-.3.8.1 1.3.9 1.2 1.8l-.5 3.2c-.5.1-1.1.3-1.5.7-.9.6-1.4 1.5-1.6 2.6-.2 1 .1 2.1.7 2.9 1.3 1.8 3.8 2.2 5.5.9.9-.6 1.4-1.5 1.6-2.6s-.1-2.1-.7-2.9c-.2-.3-.4-.5-.7-.7l2.5-.4c.4 1.1 1.4 2 2.6 2.2 1.8.3 3.5-1 3.8-2.8v-.4c.3 0 .6.2.7.4.2.3.2.7.1 1l-3.2 6.3c-.2-.1-.4-.1-.6-.1-1-.2-2.1.1-3 .7-.9.6-1.4 1.6-1.6 2.6-.2 1.1.1 2.1.7 3l.9.9-5.1 10.1c-6.2-1.8-10.5-5-12.9-9.5 1.1-.4 2-1.4 2.2-2.6.3-1.8-1-3.6-2.8-3.9-.5-.1-1 0-1.4.1-.2-1.5-.3-3.2-.3-4.9l1.3-.2z" class="st1"/><path d="M195.4 187.4c-.2 1.1.1 2.2.8 3.1 1.4 1.9 4 2.3 5.8.9.9-.7 1.5-1.6 1.7-2.7.2-1.1-.1-2.2-.8-3.1-.7-.9-1.7-1.5-2.7-1.7-1.1-.2-2.2.1-3.1.7-.9.7-1.5 1.7-1.7 2.8zm2.5-1.6c1.2-.9 3-.6 3.9.6.4.6.6 1.3.5 2.1-.1.7-.5 1.4-1.1 1.8-.6.5-1.4.6-2.1.5-.7-.1-1.4-.5-1.8-1.1-.4-.6-.6-1.3-.5-2.1.1-.7.5-1.4 1.1-1.8zm-4.2-4.7c1.2 1.7 3.5 2 5.1.9.1-.1.3-.3.3-.4 0-.2 0-.4-.1-.5l-3.4-4.9c-.1-.2-.3-.3-.5-.3s-.4 0-.5.1c-1.7 1.2-2.1 3.5-.9 5.1zm1.2-3.5l2.5 3.6c-.9.3-2 0-2.6-.9-.6-.8-.5-1.9.1-2.7z" class="st1"/></g><g class="st0"><path d="M181.2 301c1.2 6.3 3.3 12.3 6.3 17.9 3 5.6 6.9 10.7 11.5 15 .8.8 1.9 1.2 3 1.2s2.2-.5 3-1.3c1-1.1 1.4-2.5 1.1-3.8l2.6-3.5 1.2-1.6 11.4-15.5 1.3-1.7 6-8.2c.7-.9.8-2 .3-2.9-.5-1-1.5-1.5-2.6-1.4l-13.5.8c-.4 0-.7.3-.6.7s.3.7.7.6l13.5-.8c.6 0 1.1.2 1.3.7.3.5.2 1.1-.1 1.5l-1.9 2.6c-.7-1.1-1.8-2-3.1-2.4-2.9-.9-6 .8-6.8 3.7-.9 2.9.8 6 3.7 6.8.1 0 .1 0 .2.1l-6.4 8.7c-.7-1-1.7-1.8-3-2.2-2.9-.9-6 .8-6.8 3.7-.9 2.9.8 5.9 3.7 6.8l-1.5 2.1c-1.6-1.8-3.5-3.5-5-5.4-.2-.3-.7-.3-.9-.1-.3.2-.3.7-.1.9 1.4 1.7 2.9 3.3 4.5 4.8 1.2 1.1 1.2 2.9.1 4.1-.5.6-1.3.9-2 .9-.8 0-1.5-.3-2.1-.8-4.5-4.3-8.3-9.2-11.3-14.7s-5.1-11.4-6.2-17.5c-.3-1.6.7-3.1 2.3-3.4 1.6-.3 3.1.8 3.4 2.3 1.5 7.9 4.6 15.2 9.3 21.7.2.3.6.4.9.1.3-.2.4-.6.1-.9-4.9-6.6-7.7-14.2-9.4-22.2l20.4-1.2c.4 0 .7-.3.6-.7 0-.4-.3-.7-.7-.6l-21.3 1.2c-1-.9-2.3-1.3-3.6-1.1-2.4.5-3.9 2.7-3.5 5zm38.4 7c-2.2-.6-3.5-3-2.8-5.2.6-2.2 3-3.5 5.2-2.8 1.2.3 2.1 1.2 2.6 2.3l-3.2 4.4-1.1 1.5c-.2-.1-.4-.1-.7-.2zm-12.2 17.1c-2.2-.6-3.5-3-2.8-5.2.6-2.2 3-3.5 5.2-2.8 1.1.3 2 1.1 2.5 2l-3.1 4.3-1.3 1.8c-.2 0-.3 0-.5-.1z" class="st1"/><path d="M209 306.4c.3.1.7-.1.8-.4 1-2.9-.7-6.1-3.7-7-2.9-.9-6 .8-6.8 3.7-.9 2.9.8 6 3.7 6.8 1.6.5 3.3.2 4.6-.7.3-.2.4-.6.2-.9-.2-.3-.6-.4-.9-.2-1 .7-2.3.9-3.5.5-2.2-.6-3.5-3-2.8-5.2.6-2.2 3-3.5 5.2-2.8 2.2.7 3.5 3.1 2.8 5.3-.1.4.1.8.4.9zm-6.1 5.6h-.2c-.1 0-2.6 0-3.8 1.6-1.1 1.6-.4 4-.4 4.1.1.3.3.5.6.5.1 0 2.6 0 3.8-1.6 1.1-1.6.4-4 .4-4.1 0-.2-.2-.4-.4-.5zm-1 3.8c-.5.7-1.5.9-2.1 1-.1-.7-.2-1.8.3-2.4.5-.7 1.5-.9 2.1-1 .1.7.2 1.8-.3 2.4zm-6.5-7.6c-.3-.2-.7-.2-.9.1-.2.3-.2.7.1.9.9.7 1.9 1 2 1 .3.1.6 0 .7-.3.1-.1 1.4-2.2.6-4-.7-1.7-2.8-2.4-3.2-2.5-.3-.1-.6 0-.7.3 0 0-.6.9-.8 2-.1.4.2.7.5.8.4.1.7-.2.8-.5.1-.4.2-.8.3-1.1.6.3 1.6.8 1.9 1.5.3.7 0 1.7-.3 2.3-.3-.1-.6-.3-1-.5zm17 5.8c.2.2.6.1.8-.1.1-.1 1.9-1.7 1.8-3.7-.2-1.9-2.3-3.3-2.4-3.3-.2-.2-.6-.1-.8.1-.1.1-1.9 1.7-1.8 3.7.2 1.9 2.3 3.2 2.4 3.3zm-.1-5.6c.5.4 1.2 1.2 1.3 2 .1.8-.5 1.6-.9 2.1-.5-.4-1.2-1.2-1.3-2-.1-.8.4-1.6.9-2.1zm-85.4 22.7c-.3.1-.5.3-.5.6s.1.5.3.7c.3.1.6.1.8-.1.2-.2.3-.5.2-.8-.1-.3-.5-.5-.8-.4z" class="st1"/><path d="M123.8 332.2c.4.1.7-.2.8-.6.1-.4-.2-.7-.6-.8-4.5-.6-8.6-2.5-11.8-5.6l1.3-2.5c1.6 1.2 3.3 2.2 5 3 1.7.8 3.4 1.3 5.1 1.7 5.7 1 11.4-.6 17.1-4.9l1.3 2.5c-3.3 3.1-7.3 5.2-11.8 5.8-.2 0-.3.1-.4.2-.1.1-.2.4-.2.6.1.4.4.6.8.6 4.9-.7 9.4-3 12.9-6.6.2-.2.3-.5.1-.8l-8-15.4-2.7-5.3-3.5-6.8c-.4-.8-1.2-1.3-2.1-1.3-.9 0-1.7.5-2.1 1.3l-4.8 9.4-2-1.9c-1.1-1.1-2.9-1.1-4.1-.1l-.1.1c-.5.5-.8 1.3-.8 2 0 .8.3 1.5.8 2.1l3.3 3.3-1.7 3.4-2.2-2.2c-1-.9-2.5-.9-3.5 0-.5.5-.7 1.1-.7 1.7 0 .7.3 1.3.7 1.7l3.3 3.3-2.5 4.9c-.1.3-.1.6.1.8 3.6 3.6 8.1 5.8 13 6.4zm-.5-6.3c-1.3-.3-2.5-.7-3.8-1.2.1-.3.3-.6.5-.8.8-.8 2-.8 2.8 0 .6.5.8 1.3.5 2zm7.6-18.5c0-.8.3-1.5.9-2l2.3 4.5c-.2.1-.4.1-.6.1-.7 0-1.4-.3-1.9-.8-.5-.4-.7-1.1-.7-1.8zm-5.3-8.4c.8.8.8 2 0 2.8-.5.5-1.1.7-1.7.6l1.7-3.4zm-5.1 10.8c0-1.4 1.2-2.6 2.6-2.6.7 0 1.3.3 1.8.7.5.5.8 1.1.8 1.8s-.3 1.4-.8 1.8c-.5.5-1.1.8-1.8.8s-1.3-.3-1.8-.7c-.5-.5-.8-1.2-.8-1.8zm-5.8 10.5c.1-.3.1-.6-.1-.8l-3.7-3.7c-.2-.2-.3-.5-.3-.7 0-.3.1-.6.3-.8.4-.4 1.1-.4 1.5 0l2.9 2.9c.2.2.4.2.6.2.2 0 .4-.2.5-.4l2.4-4.7c.1-.3.1-.6-.1-.8l-3.7-3.6c-.3-.3-.4-.7-.4-1.1 0-.4.2-.8.5-1.1.6-.6 1.5-.5 2.1 0l2.3 2.3c-.2.5-.4 1.1-.4 1.6 0 1.1.4 2 1.2 2.8.7.7 1.7 1.1 2.8 1.1 2.2 0 4-1.8 3.9-4 0-1.1-.4-2-1.2-2.8s-1.7-1.1-2.8-1.1c-.3 0-.7 0-1 .1l1.2-2.3c1.2.3 2.5 0 3.3-.9 1.3-1.3 1.3-3.4 0-4.7l-.3-.3c.2-.2.5-.4.8-.4.4 0 .7.2.9.5l3.2 6.2c-.2.1-.3.3-.5.4-.7.7-1.2 1.8-1.2 2.8 0 1.1.4 2.1 1.2 2.8.8.8 1.8 1.2 2.8 1.2.4 0 .9-.1 1.3-.2l5.2 10c-5.1 3.9-10.2 5.6-15.3 4.9.3-1.2 0-2.4-.9-3.3-1.3-1.3-3.5-1.3-4.8 0-.3.3-.6.8-.8 1.2-1.4-.7-2.8-1.6-4.1-2.6l.7-.7z" class="st1"/><path d="M129.8 322.5c.8.8 1.8 1.2 3 1.2 2.3 0 4.2-1.9 4.2-4.2 0-1.1-.4-2.2-1.2-2.9-.8-.8-1.8-1.2-3-1.2-1.1 0-2.2.5-2.9 1.2-.8.8-1.2 1.8-1.2 3-.1 1.1.3 2.2 1.1 2.9zm.1-2.9c0-1.5 1.3-2.8 2.8-2.8.7 0 1.4.3 2 .8.5.5.8 1.2.8 2s-.3 1.5-.8 2-1.2.8-2 .8c-.7 0-1.4-.3-2-.8-.5-.6-.8-1.3-.8-2zm-6.2.7c2 0 3.7-1.6 3.7-3.6 0-.2-.1-.4-.2-.5-.1-.1-.3-.2-.5-.2l-5.9-.1c-.2 0-.4.1-.5.2-.1.1-.2.3-.2.5-.1 2 1.5 3.7 3.6 3.7zm-2.2-3l4.4.1c-.3.9-1.2 1.6-2.2 1.6-1-.1-1.9-.8-2.2-1.7zm33.4-48.4c.5.4 1.1.7 1.7.6 5.6-.3 11.2-1.8 16.2-4.5s9.4-6.5 12.7-11c.4-.5.5-1.1.4-1.7-.1-.6-.5-1.2-1-1.5l-3.1-2.1-1.8-1.2v-1.6c0-.4-.3-.8-.8-.8-.4 0-.8.3-.8.8v2c0 .3.1.5.3.6l1.5 1-2.1 2.7c-.8.9-1.6 1.7-2.5 2.5-.8.8-1.7 1.5-2.7 2.1-1 .7-2 1.3-3 1.9-1 .6-2.1 1.1-3.2 1.6-.1.1-.3.1-.4.2 0-.6-.1-1.1-.3-1.7-.4-1-1.3-1.8-2.3-2.2-.5-.2-1-.3-1.5-.3-.6 0-1.1.1-1.6.3-1 .4-1.8 1.3-2.2 2.3-.4 1-.4 2.2.1 3.2.1.1.1.3.2.4-1 .1-2.1.2-3.1.2l-.1-19.1c1.2-.4 2.2-1.4 2.6-2.7.4-1.4.1-2.9-.9-4-.5-.5-1.1-.9-1.7-1.1v-3.1l3.6 2.4c.2.2.5.2.8 0 .2-.1.4-.4.4-.7v-1.8c0-.4.3-.7.7-.7s.7.3.7.7v3.8c0 .1 0 .2.1.3-1.1 1.2-1.4 2.9-.7 4.4.9 2.1 3.4 3 5.4 2.1.9-.4 1.6-1 2-1.9l1 .7c.2.2.5.2.8 0 .2-.1.4-.4.4-.7v-2.9c0-.4.3-.7.7-.7s.7.3.7.7v4.9c0 .3.1.5.3.6l3.5 2.4c.2.2.5.2.8 0 .2-.1.4-.4.4-.7l-.1-10.2c0-.4.3-.7.7-.7.4 0 .7.3.7.7v4.1c0 .4.3.8.8.8.4 0 .8-.3.8-.8v-4.1c0-1.2-1-2.2-2.2-2.2s-2.2 1-2.2 2.2l.1 8.7-2-1.3v-4.5c0-1.2-1-2.2-2.2-2.2-1.2 0-2.2 1-2.2 2.2v1.5l-.6-.4-5.2-3.5-.1-.1v-3.3c0-1.2-1-2.2-2.2-2.2-1.2 0-2.2 1-2.2 2.2v.3l-3.6-2.4c-.5-.3-1.2 0-1.2.6l.2 35.9c-.2 1 0 1.6.5 2zm12.3-28.2c-.3.6-.7 1.1-1.3 1.3-1.3.6-2.9 0-3.4-1.3-.4-1-.2-2.1.5-2.9l2.8 1.9 1.4 1zm17.2 11.9c0 .2 0 .4-.1.6-3.2 4.4-7.4 8-12.2 10.6-4.8 2.6-10.2 4-15.6 4.3-.2 0-.4-.1-.5-.2-.2-.1-.2-.3-.2-.6v-2.9c1.2 0 2.4-.1 3.6-.3.3 0 .7-.1 1-.2 1.8-.3 3.7-.8 5.4-1.4 1.2-.4 2.5-1 3.6-1.5 1.2-.6 2.4-1.3 3.5-2s2.1-1.5 3.2-2.4c1-.9 2-1.8 2.9-2.7.9-1 1.7-2 2.5-3 .1-.1.2-.3.3-.4l2.5 1.6c0 .1.1.3.1.5zm-24.5 7c.3-.6.7-1.2 1.4-1.4.6-.3 1.3-.3 2 0 .6.3 1.2.7 1.4 1.4.2.5.3 1.1.1 1.7-1.1.4-2.3.7-3.5 1-.3.1-.6.1-1 .2-.2-.2-.4-.5-.5-.7-.1-.9-.1-1.6.1-2.2zm-3.3-20.8c.3.6.3 1.3 0 2-.2.5-.6 1-1.1 1.3v-4.5c.5.2.9.7 1.1 1.2z" class="st1"/><path d="M173.4 247c-.5-.2-1-.3-1.5-.3-.6 0-1.1.1-1.6.3-2.1.9-3 3.4-2.1 5.4.4 1 1.3 1.8 2.3 2.2 1 .4 2.2.4 3.2-.1 1-.4 1.8-1.3 2.2-2.3.4-1 .4-2.2-.1-3.2-.6-.8-1.4-1.6-2.4-2zm.9 4.8c-.3.6-.7 1.2-1.4 1.4-.3.1-.7.2-1 .2-.3 0-.7-.1-1-.2-.7-.3-1.2-.7-1.4-1.4-.6-1.3 0-2.9 1.3-3.4.6-.3 1.3-.3 2 0 .6.3 1.2.7 1.4 1.4.4.6.4 1.3.1 2zm-12.2-6.3c-.5-.2-1-.3-1.5-.3-.6 0-1.1.1-1.6.3-1 .4-1.8 1.3-2.2 2.3-.4 1-.4 2.2.1 3.2.4 1 1.3 1.8 2.3 2.2 1 .4 2.2.4 3.2-.1 1-.4 1.8-1.3 2.2-2.3.4-1 .4-2.2-.1-3.2-.6-.9-1.4-1.7-2.4-2.1zm.9 4.8c-.3.6-.7 1.2-1.4 1.4-.3.1-.7.2-1 .2-.3 0-.7-.1-1-.2-.6-.3-1.2-.7-1.4-1.4-.3-.6-.3-1.3 0-2 .3-.6.7-1.2 1.4-1.4.6-.3 1.3-.3 2 0 .6.3 1.2.7 1.4 1.4.3.6.3 1.3 0 2zm16.3-8.2c-.3 0-.6.2-.7.5-.1.3 0 .7.3.8.2.2.6.2.9 0 .3-.2.4-.5.3-.8-.2-.2-.5-.5-.8-.5zM20.1 292.2c.7 0 1.3.1 1.9.4 12.2 5.7 20.7 13.9 25.8 25.2 1 2.3 0 4.9-2.2 6-1.1.5-2.3.6-3.5.2-1.2-.4-2.1-1.3-2.6-2.4C35 312 27.8 305 18.3 300.9c-2.1-.9-3.2-3.3-2.5-5.5.7-1.9 2.4-3.2 4.3-3.2zm23.7 30.9c.5 0 1-.1 1.4-.3 1.6-.8 2.3-2.7 1.6-4.3-5-11-13.3-19.1-25.2-24.6-1.6-.7-3.6 0-4.3 1.6-.7 1.6 0 3.6 1.6 4.3 9.8 4.3 17.1 11.5 21.9 21.5.4.8 1.1 1.4 1.9 1.7.3 0 .7.1 1.1.1z" class="st1"/><path d="M16.9 299.3l1.2.4-12.3 35 34.7-13 .4 1.2L5 336.4c-.3.1-.7 0-.8-.4-.1-.1-.1-.3 0-.4l12.7-36.3z" class="st1"/><path d="M33.2 320.1c2.1 0 3.8 1.7 3.8 3.8h-1.3c0-1.4-1.2-2.5-2.6-2.5-1.4 0-2.5 1.2-2.5 2.6 0 .6.2 1.2.6 1.6l-1 .8c-1.4-1.6-1.2-4 .4-5.4.8-.5 1.7-.9 2.6-.9zm-11.7-13c2.1 0 3.8 1.7 3.8 3.8 0 1-.4 2-1.1 2.7-1.5 1.5-3.9 1.5-5.4 0-1.5-1.5-1.5-3.9 0-5.4.7-.7 1.6-1.1 2.7-1.1zm1.8 5.6c1-1 1-2.6 0-3.6s-2.6-1-3.6 0-1 2.6 0 3.6 2.6 1 3.6 0zm-1.9 5.4c2.1 0 3.8 1.7 3.8 3.8s-1.7 3.8-3.8 3.8c-2.1 0-3.8-1.7-3.8-3.8 0-1 .4-2 1.1-2.7.7-.7 1.7-1.1 2.7-1.1zm0 6.4c1.4 0 2.5-1.2 2.5-2.6 0-1.4-1.2-2.5-2.6-2.5-1.4 0-2.5 1.2-2.5 2.6 0 .7.3 1.3.8 1.8.5.4 1.1.7 1.8.7zM10 321c1 0 2 .4 2.7 1.1 1.5 1.5 1.5 3.9 0 5.4-1.4 1.5-3.8 1.5-5.3.1l.9-.9c1 .9 2.6.9 3.6-.2.9-1 .9-2.5-.1-3.5-.5-.5-1.2-.8-1.9-.7l-.2-1.3h.3zm19.6-6.8h-1.3l-.1-2.9h1.3l.1 2.9zm.5 3.3l-.1 1.3-3.8-.4.1-1.3 3.8.4zm-14.7-1.4l-.8 1-2.7-2.2.8-1 2.7 2.2zm3.6 14.4l-1.2.4-.6-1.8 1.2-.4.6 1.8zm51-34.6c1.2.2 2.4-.3 3.2-1.2 1.4-1.6 1-3.9-.5-5l27.6-30.2c2.1-2.3.5-6-2.6-6-26.4-.4-18.4-.3-40.6-.6.2-1.8-1.2-3.7-3.3-3.8-1.3-.1-2.4.5-3.1 1.5-12.3 17.6-1.9 42 19.3 45.3zm-5.8-9.3c1.8-5.4 8.4-7.4 12.9-4l-5.8 6.3c-.8-.1-3.6-.4-7.1-2.3zm29-21.6c-1.4-1.9-.7-4.7 1.5-5.6 1.1-.5 2.4-.4 3.4.2l-4.9 5.4zm4.5-10c1.7 0 2.6 2.1 1.5 3.4-1.5-1-3.5-1.2-5.1-.5-3.2 1.4-4.2 5.6-2 8.3l-13.9 15.3c-5.3-4.1-13-1.9-15.4 4.3-10.6-6.7-13.5-20.9-6.3-31.2 0-.1.1-.1.1-.2l5.7.1c.6 4.8 5.6 7.6 10 5.7 2.3-1 3.9-3.1 4.2-5.5l21.2.3zm-26.1 3.8c-3.3 1.5-7.2-.6-7.7-4.2l11 .2c-.4 1.7-1.6 3.2-3.3 4zM52 251.5c.4-.5 1-.8 1.7-.8 1.7.1 2.3 1.8 1.5 3-10 14.3-1.6 34.1 15.7 36.8 1.5.2 2.2 2 1.2 3.2-.5.6-1.1.8-1.8.7-19.9-3.2-30-26.1-18.3-42.9z" class="st1"/><path d="M85 266.6c.4-.2.6-.6.4-1-1.2-2.8.1-6.1 2.9-7.3.6-.3.6-1.2 0-1.5-.2-.1-.4-.1-.6 0-3.6 1.6-5.3 5.8-3.7 9.4.1.4.6.6 1 .4zm-15.4-3.1c-.2-.4-.6-.6-1-.4-3.3 1.4-7.1-.1-8.5-3.3-.2-.4-.6-.6-1-.4-.4.2-.6.6-.4 1 1.8 4.1 6.5 5.9 10.6 4.2.3-.2.5-.7.3-1.1zm-3.2 5c-3.7-1.4-7.2 2.3-5.7 5.9 1.6 3.6 6.7 3.5 8.2-.2.9-2.3-.3-4.8-2.5-5.7zm-4.3 5.2c-.6-1.4 0-3.1 1.5-3.7 2.3-1 4.7 1.3 3.8 3.6-.9 2.4-4.2 2.4-5.3.1zm13.1-4.5c-1.8.8-2.6 2.9-1.8 4.6.8 1.8 2.9 2.6 4.6 1.8 1.8-.8 2.6-2.9 1.8-4.6-.8-1.8-2.9-2.6-4.6-1.8zm2.1 5c-1 .4-2.1 0-2.5-1-.7-1.6.9-3.2 2.5-2.6 1.6.6 1.6 2.9 0 3.6zm1.7-9.9c1.3-.6 1.9-2.1 1.3-3.4-.6-1.3-2.1-1.9-3.4-1.3-1.3.6-1.9 2.1-1.3 3.4.5 1.2 2.1 1.8 3.4 1.3zm-1.5-3.4c.5-.2 1.1 0 1.4.5.2.5 0 1.1-.5 1.4-.5.2-1.1 0-1.4-.5-.2-.5 0-1.1.5-1.4z" class="st1"/><circle cx="58.5" cy="267.4" r=".9" class="st1"/><circle cx="61.5" cy="281" r=".9" class="st1"/><circle cx="57.8" cy="256.8" r=".9" class="st1"/><circle cx="86.1" cy="269.2" r=".9" class="st1"/><circle cx="72" cy="266.4" r=".9" class="st1"/><path d="M223.2 264.7c.1.9.5 1.8 1.2 2.4.7.6 1.6.9 2.5.8.9-.1 1.8-.5 2.4-1.2.6-.7.9-1.6.8-2.5-.1-.9-.5-1.8-1.2-2.4-.7-.6-1.6-.9-2.5-.8-.9.1-1.8.5-2.4 1.2-.6.7-.9 1.6-.8 2.5zm4.8-1.8c.4.3.7.8.7 1.4 0 .5-.1 1.1-.5 1.5-.3.4-.8.7-1.4.7-.5 0-1.1-.1-1.5-.5-.4-.3-.7-.8-.7-1.4s.1-1.1.5-1.5c.3-.4.8-.7 1.4-.7.5 0 1 .1 1.5.5zm6.2 2.2c1.5 1.2 3.7 1.1 4.9-.4.6-.7.9-1.6.8-2.5-.1-.9-.5-1.7-1.2-2.4-1.5-1.2-3.7-1.1-4.9.4-1.2 1.5-1 3.7.4 4.9zm3.6-4.2c.9.7 1 2 .2 2.9-.7.9-2 1-2.9.2-.4-.4-.7-.9-.7-1.4 0-.5.1-1.1.5-1.5.8-.8 2-.9 2.9-.2zm7.2 12.8c.6-.7.9-1.6.8-2.5-.1-.9-.5-1.7-1.2-2.4-1.5-1.2-3.7-1.1-4.9.4-.6.7-.9 1.6-.8 2.5.1.9.5 1.8 1.2 2.4 1.5 1.3 3.6 1.1 4.9-.4zm-4-.7c-.4-.3-.7-.8-.7-1.4s.1-1.1.5-1.5c.3-.4.8-.7 1.4-.7s1.1.1 1.5.5c.9.7 1 2 .2 2.9-.7.8-2 .9-2.9.2zm-6.2-17.4v-.1c-.1-.4-.5-.6-.9-.5l-5.5 1.4c-.4.1-.6.5-.5.9.1.4.5.6.9.5l5.5-1.4c.3-.2.5-.5.5-.8zm-2.7 12.5l.9 3.6c.1.4.5.6.9.5.3-.1.6-.4.5-.8v-.1l-.9-3.6c-.1-.4-.5-.6-.9-.5-.4.1-.6.5-.5.9z" class="st1"/><path d="M232.4 241c-4.1 2.1-8.5 5.7-12.3 10.1-.3.3-.2.8.1 1 .3.3.8.2 1-.1 3.8-4.3 8-7.7 11.9-9.8 1.1-.6 2.5-.1 3.1 1 .4.8.3 1.8-.3 2.5-.2.2-.4.4-.7.5-3.7 1.9-7.8 5.4-11.3 9.6-3.5 4.2-6.3 8.9-7.6 12.8-.4 1.2-1.7 1.8-2.9 1.5-1.2-.4-1.8-1.7-1.5-2.9 1.3-4 3.8-8.5 7.2-12.8.2-.3.2-.8-.1-1-.3-.2-.8-.2-1 .1-3.5 4.4-6 9-7.4 13.2-.6 1.9.5 4.1 2.4 4.7 1.5.5 3.1 0 4-1.2l9 2.9c.4.1.8-.1.9-.5v-.3c0-.3-.2-.5-.5-.6l-8.7-2.9c1.2-3.7 3.9-8.2 7.3-12.2s7.3-7.3 10.8-9.2l7.8 14.8c.1.3.4.4.7.4l12.1-1c.9-.1 1.7.6 1.7 1.5.1.9-.6 1.7-1.5 1.7l-3.3.3c-.4 0-.7.4-.7.8s.4.7.8.7l3.3-.3c1.7-.1 2.9-1.6 2.8-3.3-.1-1.7-1.6-2.9-3.3-2.8l-11.6 1-7.7-14.6s0-.1.1-.1c.7-.8.9-1.7.9-2.7 0-.5-.2-1-.4-1.4-1-1.7-3.3-2.4-5.1-1.4z" class="st1"/><path d="M250.3 267c.4 0 .7-.4.7-.8s-.4-.7-.8-.7l-3.7.3c-.2 0-.5.2-.6.4-.1.2-.1.5 0 .7l2.6 5c.1.3.4.4.7.4l5.8-.5c.9-.1 1.7.6 1.7 1.5.1.9-.6 1.7-1.5 1.7l-3.9.3c-.2 0-.5.2-.6.4-.1.2-.1.5 0 .7l1.9 3.6c.1.1 0 .3 0 .3 0 .1-.1.1-.3.1l-23-7.6c-.4-.1-.8.1-.9.5-.1.4.1.8.5.9l23 7.6c.7.2 1.4 0 1.9-.5s.5-1.3.2-1.9l-1.4-2.6 2.8-.2c1.7-.1 2.9-1.6 2.8-3.3-.1-1.7-1.6-2.9-3.3-2.8l-5.3.4-1.9-3.6 2.6-.3z" class="st1"/></g></svg>