<svg xmlns="http://www.w3.org/2000/svg" width="512" height="512" viewBox="0 0 512 512"><path d="M299.687 259C331.289 259 357 233.415 357 201.966s-25.711-57.034-57.313-57.034c-31.604 0-57.314 25.585-57.314 57.034S268.083 259 299.687 259zm0-84.068c15.061 0 27.313 12.127 27.313 27.034S314.747 229 299.687 229c-15.062 0-27.314-12.127-27.314-27.034s12.252-27.034 27.314-27.034z"/><path d="M508.95 73.234a49.486 49.486 0 0 0-27.24-29.601C415.609 15.088 337.56 0 256 0S96.392 15.088 30.289 43.633a49.488 49.488 0 0 0-27.239 29.6 49.592 49.592 0 0 0 3.807 40.137l213.081 377.616C227.362 504.145 240.844 512 256 512s28.638-7.855 36.063-21.013l213.08-377.616a49.596 49.596 0 0 0 3.807-40.137zM111.743 226.791c0-19.735 16.207-35.791 36.128-35.791C167.793 191 184 207.056 184 226.791s-16.207 35.791-36.129 35.791c-19.921 0-36.128-16.056-36.128-35.791zm176.386 163.791c-19.922 0-36.129-16.056-36.129-35.791S268.207 319 288.129 319c19.921 0 36.128 16.056 36.128 35.791s-16.207 35.791-36.128 35.791zm60.858-61.519C338.9 305.535 315.42 289 288.129 289 251.665 289 222 318.514 222 354.791s29.665 65.791 66.129 65.791c3.265 0 6.473-.246 9.612-.703l-31.806 56.365C263.004 481.439 258.011 482 256 482s-7.004-.561-9.936-5.756L142.286 292.33c1.843.154 3.703.252 5.585.252 36.464 0 66.129-29.514 66.129-65.791S184.335 161 147.871 161c-25.855 0-48.277 14.847-59.144 36.415l-23.141-41.01c53.853-27.357 120.818-42.308 190.414-42.308 69.595 0 136.562 14.951 190.414 42.308zM479.016 98.627l-17.853 31.639c-58.24-29.844-130.432-46.17-205.163-46.17-74.732 0-146.922 16.327-205.163 46.171L32.985 98.628c-2.759-4.888-3.292-10.507-1.502-15.823 1.78-5.288 5.58-9.418 10.7-11.629C104.561 44.238 178.497 30 256 30s151.44 14.238 213.817 41.175c5.121 2.211 8.921 6.341 10.701 11.629 1.789 5.316 1.256 10.936-1.502 15.823z"/></svg>