<svg xmlns="http://www.w3.org/2000/svg"><symbol id="icon-chili" viewBox="0 0 512 512"><path d="M451.911 7.947l-5.75-5.75a7.504 7.504 0 0 0-7.543-1.855C396 13.678 366.609 43.323 349.457 65.844a232.022 232.022 0 0 0-16.622 25.087c-13.815-2.9-28.154-3.255-42.265-.856-18.745 3.188-31.88 19.856-31.174 38.384-8.266 4.371-15.9 10.063-22.73 17.008-13.531 13.757-24.986 40.033-26.08 59.823-1.538 27.844-15.602 171.267-141.75 260.616-10.49 7.43-13.831 20.117-8.313 31.57C64.934 506.632 73.78 512 83.472 512c2.489 0 5.035-.355 7.574-1.09 91.67-26.532 157.684-80.097 196.92-120.36 49.08-50.366 84.697-109.137 97.719-161.244 5.409-21.652 2.531-44.404-8.104-64.065-12.601-23.297-34.706-39.672-60.648-44.927-14.237-2.884-28.562-2.249-42.019 1.772 1.96-8.619 8.929-15.651 18.169-17.223 27.275-4.638 55.56 2.556 77.603 19.733 4.932 3.843 7.975 9.388 8.569 15.615a7.5 7.5 0 1 0 14.932-1.426c-.977-10.226-6.182-19.711-14.282-26.022a115.052 115.052 0 0 0-32.187-17.644c15.681-26.226 45.368-63.104 91.104-79.046l2.482 2.483a7.501 7.501 0 0 0 10.607-10.609zM299.096 133.491c4.884.001 9.843.508 14.859 1.524 21.572 4.37 39.954 17.988 50.434 37.362 8.849 16.357 11.243 35.283 6.744 53.291-12.396 49.609-46.625 105.89-93.909 154.412-37.975 38.97-101.824 90.8-190.348 116.421-6.586 1.905-11.036-1.789-12.841-5.537-1.799-3.734-1.832-9.062 3.47-12.817 131.771-93.33 146.452-242.978 148.058-272.029.887-16.064 10.869-39.022 21.796-50.132 6.871-6.987 14.663-12.471 23.157-16.302 9.149-4.124 18.715-6.193 28.58-6.193z"/></symbol><symbol id="icon-best-seller" viewBox="0 0 512 512"><path d="M256 0C144.1 0 53.1 91 53.1 202.9c0 63.5 29.3 120.2 75.1 157.5l-10.8 19.8c-2 3.6-.6 8.2 3 10.1 3.6 2 8.2.6 10.1-3l9.7-17.8c23.2 16.1 49.8 27.6 78.6 32.9L168 496.1l-22.8-33.4c-2.5-3.7-6.7-6-11.1-6.1l-40.5-1 20.5-37.6c2-3.6.6-8.2-3-10.1-3.6-2-8.2-.6-10.1 3L79.5 450c-2.3 4.3-2.3 9.4.2 13.6 2.4 4.2 6.8 6.8 11.7 6.9l41.7 1 23.5 34.4c2.6 3.8 6.9 6.1 11.5 6.1h.7c4.9-.2 9.2-3 11.5-7.2l54.4-100.1c7 .7 14.1 1.1 21.3 1.1 7.2 0 14.3-.4 21.3-1.1l54.4 100.1c2.3 4.3 6.6 7 11.5 7.2h.7c4.6 0 8.8-2.2 11.5-6.1l23.5-34.4 41.7-1c4.9-.1 9.3-2.7 11.7-6.9a14 14 0 0 0 .2-13.6l-48.6-89.5c28.1-22.8 49.5-52.5 62.3-86.5 1.4-3.9-.5-8.2-4.4-9.6-3.9-1.4-8.2.5-9.6 4.4-13.3 35.5-36.7 65.8-67.8 87.8C332.5 379 295 390.8 256 390.8c-103.6 0-187.9-84.3-187.9-187.9S152.4 15 256 15s187.9 84.3 187.9 187.9c0 11.2-1 22.4-3 33.4-.7 4.1 2 8 6 8.7 4.1.7 8-2 8.7-6 2.1-11.8 3.2-23.9 3.2-36C458.9 91 367.9 0 256 0zm115.7 369.6l46.8 86-40.5 1c-4.5.1-8.6 2.4-11.1 6.1L344 496.1l-50.9-93.7c28.2-5.2 54.8-16.3 78.6-32.8z"/><path d="M256 41.6c-88.9 0-161.3 72.3-161.3 161.3 0 88.9 72.3 161.3 161.3 161.3s161.3-72.3 161.3-161.3c0-88.9-72.4-161.3-161.3-161.3zm0 307.6c-80.7 0-146.3-65.6-146.3-146.3S175.3 56.6 256 56.6c80.7 0 146.3 65.6 146.3 146.3S336.7 349.2 256 349.2z"/></symbol><symbol id="icon-vegan" viewBox="0 0 512 512"><path d="M495.5 131.5c-1-2.3-3-4.1-5.5-4.8-2.4-.7-5.1-.3-7.2 1.1-27.5 20.5-59.5 34.2-93.4 40-45.8 7.4-86.6 16.3-121.9 49.7-8.6 8.3-16 17.8-21.8 28.2-7.8-15.2-18-29-30.3-40.8-31-28.8-66.8-36.4-107-42.7-29.4-4.9-57.2-16.6-81.3-34.1-2.1-1.4-4.7-1.8-7.2-1.1-2.4.7-4.4 2.5-5.5 4.8-40.4 93.9 4.9 224.1 111.5 257.3 34.7 10 71.4 10.6 106.4 1.7 3.9-1 6.6-4.5 6.5-8.5 0-54.4 5.1-88.7 14.3-112.6l.5-1.2c5.5-14.6 14.2-27.8 25.6-38.5 31.7-30.1 69.8-38.3 112.8-45.3 32.7-5.5 63.9-18.1 91.3-36.8 40.3 114-24.7 287.7-210.3 277.1 29.6-58.5 73.7-108.4 128-145.1 2.7-1.7 4.2-4.7 4-7.8-.2-3.1-2.1-5.9-5-7.2-2.9-1.3-6.2-.9-8.7 1-104.6 71.7-137.5 159.6-138.8 163.2-.9 2.5-.6 5.2.8 7.5 1.4 2.2 3.8 3.7 6.4 4 36.7 3.9 73.9.2 109.1-10.9 120.7-38.5 172.7-188.9 126.7-298.2zM221.9 357.4c-13.1-21.2-46.8-66-114.5-111.7-3.9-2.6-9.2-1.6-11.9 2.3-2.6 3.9-1.6 9.2 2.3 11.9 83.3 56.7 113.3 112 116.1 117.3C64.1 402.1-11 254.3 26.5 147.7c23.9 15.9 50.9 26.5 79.3 31.1 38.7 6.1 70.7 13 98 38.5 14.2 13.8 25.3 30.4 32.6 48.8a295 295 0 0 0-14.5 91.3z"/></symbol><symbol id="icon-healthy" viewBox="0 0 60 60"><path d="M58.07 23.61a1 1 0 0 0-1.48-.43 25.6 25.6 0 0 1-10.94 4.69c-5.37.87-10.15 1.91-14.29 5.83A14.35 14.35 0 0 0 28.8 37a18 18 0 0 0-3.55-4.78c-3.63-3.37-7.83-4.27-12.54-5a22.44 22.44 0 0 1-9.53-4 1 1 0 0 0-1.48.43c-4.73 11 .57 26.26 13.07 30.15a23.91 23.91 0 0 0 12.47.2 1 1 0 0 0 .76-1c0-6.38.6-10.4 1.67-13.2l.06-.14a12 12 0 0 1 3-4.51c3.71-3.53 8.18-4.49 13.22-5.31a26.9 26.9 0 0 0 10.7-4.31C61.37 38.89 53.75 59.24 32 58a45 45 0 0 1 15-17 1 1 0 1 0-1.14-1.64c-12.26 8.4-16.11 18.7-16.27 19.13a1 1 0 0 0 .84 1.34c4.306.456 8.66.02 12.79-1.28 14.14-4.5 20.24-22.13 14.85-34.94zM26 50.09C24.47 47.6 20.51 42.36 12.58 37a1.001 1.001 0 0 0-1.12 1.66c9.76 6.64 13.28 13.13 13.61 13.75C7.51 55.32-1.29 38 3.1 25.51a23.56 23.56 0 0 0 9.29 3.64c4.54.72 8.28 1.52 11.49 4.51a16.33 16.33 0 0 1 3.82 5.72A34.64 34.64 0 0 0 26 50.09z"/><path d="M29.29 30.7a1 1 0 0 0 1.42 0l13.38-13.53C50.29 10.91 46 0 37 0a9.82 9.82 0 0 0-7 3 9.87 9.87 0 0 0-14.08 0 10.12 10.12 0 0 0 0 14.22zM17.34 4.36a7.89 7.89 0 0 1 11.25 0l.7.7a1 1 0 0 0 1.42 0l.71-.71A8 8 0 0 1 45 10.06a8.06 8.06 0 0 1-2.33 5.7L30 28.58 17.34 15.76a8.11 8.11 0 0 1 0-11.4z"/><path d="M19 14.1a1 1 0 0 0 .8-1.59 4.13 4.13 0 0 1 .38-5.33 1 1 0 1 0-1.42-1.41 6.14 6.14 0 0 0-.56 7.93 1 1 0 0 0 .8.4zM23 6c.27 0 .538.03.8.09a1.022 1.022 0 0 0 .42-2A6.78 6.78 0 0 0 23 4a1 1 0 0 0 0 2z"/></symbol><symbol id="icon-meat" viewBox="0 0 512 512"><path d="M468.467 125.688c-23.347-18.607-56.3-33.841-97.944-45.277-80.091-21.994-170.408-24.368-205.522-24.368C74.019 56.043 0 130.063 0 221.045v69.91c0 90.983 74.019 165.002 165.001 165.002 41.953 0 73.46-13.142 106.817-27.056 34.496-14.389 70.165-29.267 120.331-29.267 66.086 0 119.851-53.766 119.851-119.851v-69.91c0-32.839-14.647-61.163-43.533-84.185zm-8.421 170.954c3.786 4.023 10.115 4.212 14.136.427A120.12 120.12 0 0 0 492 275.907v3.876c0 55.059-44.793 99.851-99.851 99.851-54.17 0-91.718 15.662-128.03 30.808-31.457 13.121-61.169 25.515-99.118 25.515-76.82 0-139.869-60.053-144.693-135.678 28.08 51.073 82.409 85.766 144.693 85.766 41.953 0 73.46-13.142 106.817-27.056 34.496-14.389 70.165-29.267 120.331-29.267 3.727 0 7.492-.176 11.192-.522 5.499-.515 9.539-5.39 9.024-10.889-.515-5.498-5.396-9.537-10.889-9.023-3.083.288-6.22.435-9.327.435-54.17 0-91.718 15.662-128.03 30.808-31.457 13.121-61.169 25.515-99.118 25.515-79.954 0-145.001-65.047-145.001-145 0-79.954 65.047-145.002 145.001-145.002 34.303 0 122.481 2.305 200.226 23.654C449.347 122.799 492 159.867 492 209.873c0 27.295-11.492 53.769-31.528 72.633-4.021 3.786-4.212 10.115-.426 14.136z"/><path d="M451.823 303.025c-2.352-4.997-8.311-7.142-13.306-4.79-.072.033-.167.08-.238.115-4.939 2.47-6.941 8.477-4.472 13.416a10 10 0 0 0 13.357 4.502c4.903-2.393 6.99-8.29 4.659-13.243zM237.188 98.862l-.515-.042c-5.514-.43-10.325 3.668-10.764 9.174-.439 5.505 3.668 10.324 9.173 10.764l.511.04c.271.022.54.033.808.033 5.161 0 9.538-3.97 9.958-9.203.44-5.506-3.666-10.325-9.171-10.766z"/><path d="M465.756 182.933c-9.919-19.604-31.989-36.546-65.599-50.354-27.195-11.173-56.936-18.231-77.097-22.186-12.083-2.369-24.745-4.485-37.635-6.287-5.467-.772-10.523 3.048-11.289 8.519-.765 5.47 3.049 10.523 8.519 11.288 12.53 1.752 24.829 3.807 36.556 6.107 68.69 13.471 115.599 36.048 128.699 61.94 2.752 5.441 4.09 11.3 4.09 17.912 0 33.001-26.849 59.85-59.851 59.85-33.368 0-65.771 5.453-99.061 16.672-14.338 4.833-28.26 10.61-41.723 16.198-8.905 3.695-18.113 7.517-27.253 10.98-23.065 8.742-40.744 12.472-59.111 12.472-57.898 0-105.002-47.103-105.002-105 0-57.898 47.104-105.002 105.002-105.002a918.907 918.907 0 0 1 39.848.869c5.513.25 10.188-4.032 10.431-9.55.244-5.517-4.032-10.188-9.549-10.431A939.421 939.421 0 0 0 165 96.042c-68.926 0-125.002 56.075-125.002 125.002 0 68.925 56.075 125 125.002 125 20.935 0 40.733-4.118 66.199-13.77 9.431-3.574 18.785-7.456 27.832-11.211 13.153-5.458 26.754-11.103 40.444-15.717 31.198-10.514 61.512-15.625 92.674-15.625 44.03.002 79.851-35.819 79.851-79.848 0-9.822-2.043-18.634-6.244-26.94z"/><path d="M174.578 135.82c-27.956 0-50.701 20.625-50.701 45.977s22.745 45.977 50.701 45.977c27.957 0 50.701-20.625 50.701-45.977s-22.744-45.977-50.701-45.977zm0 71.953c-16.929 0-30.701-11.653-30.701-25.977 0-14.323 13.772-25.977 30.701-25.977s30.701 11.653 30.701 25.977-13.772 25.977-30.701 25.977z"/></symbol><symbol id="icon-pizza-slice" viewBox="0 0 512 512"><path d="M299.687 259C331.289 259 357 233.415 357 201.966s-25.711-57.034-57.313-57.034c-31.604 0-57.314 25.585-57.314 57.034S268.083 259 299.687 259zm0-84.068c15.061 0 27.313 12.127 27.313 27.034S314.747 229 299.687 229c-15.062 0-27.314-12.127-27.314-27.034s12.252-27.034 27.314-27.034z"/><path d="M508.95 73.234a49.486 49.486 0 0 0-27.24-29.601C415.609 15.088 337.56 0 256 0S96.392 15.088 30.289 43.633a49.488 49.488 0 0 0-27.239 29.6 49.592 49.592 0 0 0 3.807 40.137l213.081 377.616C227.362 504.145 240.844 512 256 512s28.638-7.855 36.063-21.013l213.08-377.616a49.596 49.596 0 0 0 3.807-40.137zM111.743 226.791c0-19.735 16.207-35.791 36.128-35.791C167.793 191 184 207.056 184 226.791s-16.207 35.791-36.129 35.791c-19.921 0-36.128-16.056-36.128-35.791zm176.386 163.791c-19.922 0-36.129-16.056-36.129-35.791S268.207 319 288.129 319c19.921 0 36.128 16.056 36.128 35.791s-16.207 35.791-36.128 35.791zm60.858-61.519C338.9 305.535 315.42 289 288.129 289 251.665 289 222 318.514 222 354.791s29.665 65.791 66.129 65.791c3.265 0 6.473-.246 9.612-.703l-31.806 56.365C263.004 481.439 258.011 482 256 482s-7.004-.561-9.936-5.756L142.286 292.33c1.843.154 3.703.252 5.585.252 36.464 0 66.129-29.514 66.129-65.791S184.335 161 147.871 161c-25.855 0-48.277 14.847-59.144 36.415l-23.141-41.01c53.853-27.357 120.818-42.308 190.414-42.308 69.595 0 136.562 14.951 190.414 42.308zM479.016 98.627l-17.853 31.639c-58.24-29.844-130.432-46.17-205.163-46.17-74.732 0-146.922 16.327-205.163 46.171L32.985 98.628c-2.759-4.888-3.292-10.507-1.502-15.823 1.78-5.288 5.58-9.418 10.7-11.629C104.561 44.238 178.497 30 256 30s151.44 14.238 213.817 41.175c5.121 2.211 8.921 6.341 10.701 11.629 1.789 5.316 1.256 10.936-1.502 15.823z"/></symbol><symbol id="icon-pizza-slice-all" viewBox="0 0 512 512"><path d="M511.352 349.424c-11.145-53.118-42.469-134.475-128.404-220.416C296.993 43.1 215.617 11.784 162.488.642c-16.148-3.393-32.044 6.991-35.432 23.138-1.641 7.823-.137 15.815 4.234 22.507a29.74 29.74 0 0 0 11.482 10.309L54.277 318.077a7.5 7.5 0 1 0 14.208 4.808l75.208-222.221c59.649 15.388 115.88 49.165 167.23 100.484 19.415 19.418 36.576 39.898 51.005 60.872a7.493 7.493 0 0 0 10.43 1.928 7.5 7.5 0 0 0 1.928-10.43c-14.923-21.692-32.641-42.848-52.664-62.883l-.028-.031-.01-.01-.126-.126-.052-.052-.023-.02c-52.932-52.858-111.052-87.798-172.87-103.973l8.677-25.639c11.382 2.711 22.954 6.234 34.501 10.531a7.501 7.501 0 0 0 5.231-14.059c-14.617-5.439-29.3-9.722-43.644-12.731a14.82 14.82 0 0 1-9.431-6.443 14.816 14.816 0 0 1-2.111-11.222c1.689-8.052 9.619-13.228 17.672-11.538 51.137 10.725 129.59 40.995 212.935 124.293 83.324 83.331 113.602 161.764 124.328 212.889.819 3.9.069 7.884-2.11 11.221a14.832 14.832 0 0 1-9.432 6.444 14.905 14.905 0 0 1-13.636-4.067 14.84 14.84 0 0 1-4.036-7.474c-9.896-47.161-38.092-119.778-116.223-197.914-38.211-38.191-78.768-68.068-120.544-88.802-3.711-1.845-8.211-.326-10.052 3.384s-.326 8.211 3.384 10.052c40.316 20.009 79.549 48.936 116.607 85.973 71.808 71.812 99.882 138.351 110.616 183.546l-25.575 8.651c-7.079-26.948-17.929-53.62-32.335-79.398a7.498 7.498 0 0 0-10.206-2.888 7.5 7.5 0 0 0-2.888 10.206c13.969 24.993 24.438 50.831 31.187 76.897l-50.353 17.033c-1.113-10.617-5.798-20.564-13.576-28.34-18.416-18.413-48.383-18.413-66.799 0-8.922 8.92-13.835 20.78-13.835 33.395 0 8.779 2.386 17.189 6.841 24.501L33.307 496.247c-5.104 1.726-10.424.483-14.232-3.326-3.806-3.807-5.048-9.122-3.323-14.221l41.67-123.126a7.5 7.5 0 1 0-14.209-4.809L1.544 473.89c-3.542 10.466-.889 21.822 6.923 29.636C13.994 509.054 21.291 512 28.794 512a29.117 29.117 0 0 0 9.321-1.544l417.361-141.183a29.739 29.739 0 0 0 5.414 7.437c5.693 5.691 13.289 8.783 21.14 8.783 2.052 0 4.123-.212 6.18-.643 7.823-1.641 14.539-6.23 18.911-12.92 4.37-6.691 5.873-14.685 4.231-22.506zM288.45 409.938c-4.268-5.583-6.585-12.369-6.585-19.513 0-8.608 3.353-16.7 9.441-22.787 12.569-12.565 33.019-12.565 45.588 0 6.125 6.124 9.437 14.221 9.435 22.721z"/><path d="M156.81 165.256c-8.922 8.92-13.836 20.78-13.836 33.395s4.914 24.474 13.836 33.394c9.208 9.206 21.304 13.81 33.4 13.81s24.191-4.604 33.4-13.81c8.922-8.919 13.835-20.779 13.835-33.394s-4.913-24.474-13.835-33.395c-18.417-18.413-48.384-18.413-66.8 0zm56.194 56.18c-12.568 12.565-33.018 12.565-45.588 0-6.088-6.086-9.441-14.178-9.441-22.786s3.353-16.7 9.441-22.787c6.285-6.283 14.538-9.424 22.794-9.424 8.254 0 16.511 3.143 22.794 9.424 6.088 6.087 9.441 14.179 9.441 22.787s-3.353 16.7-9.441 22.786zm-81.625 159.089c9.208 9.206 21.304 13.81 33.4 13.81s24.192-4.604 33.4-13.81a7.5 7.5 0 0 0-10.606-10.608c-12.569 12.566-33.02 12.564-45.588 0-6.088-6.087-9.441-14.179-9.441-22.787 0-8.607 3.353-16.699 9.441-22.786 12.568-12.564 33.02-12.564 45.588 0 5.132 5.131 8.312 11.638 9.197 18.818.507 4.111 4.247 7.043 8.362 6.527a7.501 7.501 0 0 0 6.527-8.361c-1.298-10.533-5.959-20.073-13.479-27.592-18.417-18.413-48.383-18.412-66.8 0-8.922 8.92-13.835 20.78-13.835 33.394-.001 12.615 4.912 24.475 13.834 33.395zM67.11 451.374c.415.061 3.185.439 7.175.439 1.703 0 3.628-.068 5.686-.262 9.857-.922 17.959-4.301 23.432-9.773s8.853-13.573 9.776-23.428c.644-6.879-.093-12.268-.179-12.86a7.501 7.501 0 0 0-6.344-6.343c-.591-.086-5.982-.824-12.861-.178-9.857.922-17.959 4.301-23.432 9.773s-8.854 13.573-9.776 23.428c-.644 6.879.092 12.268.178 12.86a7.503 7.503 0 0 0 6.345 6.344zm13.86-32.023c4.303-4.302 11.796-5.511 17.471-5.644-.133 5.679-1.343 13.165-5.643 17.464-4.303 4.302-11.796 5.511-17.472 5.644.133-5.679 1.344-13.165 5.644-17.464zM251.52 269.1a7.493 7.493 0 0 0-7.622 4.729c-.219.557-2.165 5.636-3.107 12.48-1.35 9.806.093 18.464 4.173 25.041 4.08 6.574 11.198 11.713 20.586 14.858 6.552 2.195 11.967 2.708 12.563 2.76a7.5 7.5 0 0 0 7.623-4.73c.219-.557 2.165-5.635 3.107-12.48 1.351-9.806-.093-18.464-4.173-25.041-4.08-6.574-11.199-11.712-20.586-14.858-6.553-2.196-11.968-2.707-12.564-2.759zm20.403 25.527c3.207 5.167 2.675 12.737 1.511 18.29-5.502-1.425-12.519-4.31-15.725-9.478-3.207-5.167-2.675-12.736-1.511-18.289 5.502 1.424 12.519 4.31 15.725 9.477zm-144.624-43.442a7.5 7.5 0 0 0-2.264 10.362l11.443 17.839a7.496 7.496 0 0 0 10.363 2.263 7.5 7.5 0 0 0 2.264-10.362l-11.443-17.839a7.502 7.502 0 0 0-10.363-2.263zm155.982-2.144l16.096 13.79a7.47 7.47 0 0 0 4.877 1.805 7.501 7.501 0 0 0 4.884-13.196l-16.096-13.79a7.499 7.499 0 0 0-10.575.815 7.499 7.499 0 0 0 .814 10.576zm-53.594 125.235l-2.018 19.335a7.502 7.502 0 0 0 7.469 8.28 7.5 7.5 0 0 0 7.45-6.723l2.018-19.335a7.502 7.502 0 0 0-6.681-8.239 7.502 7.502 0 0 0-8.238 6.682z"/></symbol></svg>