<svg xmlns="http://www.w3.org/2000/svg" width="512" height="512" viewBox="0 0 512 512"><path d="M495.5 131.5c-1-2.3-3-4.1-5.5-4.8-2.4-.7-5.1-.3-7.2 1.1-27.5 20.5-59.5 34.2-93.4 40-45.8 7.4-86.6 16.3-121.9 49.7-8.6 8.3-16 17.8-21.8 28.2-7.8-15.2-18-29-30.3-40.8-31-28.8-66.8-36.4-107-42.7-29.4-4.9-57.2-16.6-81.3-34.1-2.1-1.4-4.7-1.8-7.2-1.1-2.4.7-4.4 2.5-5.5 4.8-40.4 93.9 4.9 224.1 111.5 257.3 34.7 10 71.4 10.6 106.4 1.7 3.9-1 6.6-4.5 6.5-8.5 0-54.4 5.1-88.7 14.3-112.6l.5-1.2c5.5-14.6 14.2-27.8 25.6-38.5 31.7-30.1 69.8-38.3 112.8-45.3 32.7-5.5 63.9-18.1 91.3-36.8 40.3 114-24.7 287.7-210.3 277.1 29.6-58.5 73.7-108.4 128-145.1 2.7-1.7 4.2-4.7 4-7.8-.2-3.1-2.1-5.9-5-7.2-2.9-1.3-6.2-.9-8.7 1-104.6 71.7-137.5 159.6-138.8 163.2-.9 2.5-.6 5.2.8 7.5 1.4 2.2 3.8 3.7 6.4 4 36.7 3.9 73.9.2 109.1-10.9 120.7-38.5 172.7-188.9 126.7-298.2zM221.9 357.4c-13.1-21.2-46.8-66-114.5-111.7-3.9-2.6-9.2-1.6-11.9 2.3-2.6 3.9-1.6 9.2 2.3 11.9 83.3 56.7 113.3 112 116.1 117.3C64.1 402.1-11 254.3 26.5 147.7c23.9 15.9 50.9 26.5 79.3 31.1 38.7 6.1 70.7 13 98 38.5 14.2 13.8 25.3 30.4 32.6 48.8a295 295 0 0 0-14.5 91.3z"/></svg>